<svg xmlns="http://www.w3.org/2000/svg" xmlns:xlink="http://www.w3.org/1999/xlink" width="1000" zoomAndPan="magnify" viewBox="0 0 750 734.999996" height="1000" preserveAspectRatio="xMidYMid meet" version="1.0"><path fill="#9a9a9b" d="M 270.226562 626.957031 L 122.070312 478.816406 L 122.070312 269.46875 L 270.226562 121.328125 L 479.597656 121.328125 L 627.757812 269.46875 L 627.757812 478.816406 L 479.597656 626.957031 Z M 270.226562 626.957031 " fill-opacity="1" fill-rule="nonzero"/><path fill="#4f4f51" d="M 479.597656 637.09375 L 270.226562 637.09375 C 267.5 637.09375 264.964844 635.925781 263.015625 634.171875 L 114.855469 486.027344 C 112.90625 484.078125 111.933594 481.546875 111.933594 478.816406 L 111.933594 269.46875 C 111.933594 266.738281 113.101562 264.207031 114.855469 262.257812 L 263.015625 114.113281 C 264.964844 112.164062 267.5 111.191406 270.226562 111.191406 L 479.792969 111.191406 C 482.523438 111.191406 485.058594 112.359375 487.007812 114.113281 L 635.167969 262.257812 C 637.117188 264.207031 638.089844 266.738281 638.089844 269.46875 L 638.089844 479.011719 C 638.089844 481.742188 636.921875 484.273438 635.167969 486.222656 L 487.007812 634.367188 C 485.058594 636.121094 482.328125 637.09375 479.597656 637.09375 Z M 274.515625 616.628906 L 475.503906 616.628906 L 617.621094 474.527344 L 617.621094 273.5625 L 475.503906 131.464844 L 274.515625 131.464844 L 132.402344 273.5625 L 132.402344 474.527344 Z M 274.515625 616.628906 " fill-opacity="1" fill-rule="nonzero"/><path fill="#9a9a9b" d="M 318.964844 509.226562 L 239.816406 430.085938 L 239.816406 318.199219 L 318.964844 239.0625 L 430.863281 239.0625 L 510.011719 318.199219 L 510.011719 430.085938 L 430.863281 509.226562 Z M 318.964844 509.226562 " fill-opacity="1" fill-rule="nonzero"/><path fill="#bdbcbd" d="M 428.523438 239.0625 L 338.070312 239.0625 L 239.816406 420.144531 L 239.816406 430.085938 L 294.984375 485.25 Z M 428.523438 239.0625 " fill-opacity="1" fill-rule="nonzero"/><path fill="#bdbcbd" d="M 378.617188 509.226562 L 492.074219 300.265625 L 453.671875 261.867188 L 319.550781 509.226562 Z M 378.617188 509.226562 " fill-opacity="1" fill-rule="nonzero"/><path fill="#4f4f51" d="M 430.863281 519.359375 L 318.964844 519.359375 C 316.234375 519.359375 313.699219 518.191406 311.75 516.4375 L 232.601562 437.296875 C 230.652344 435.347656 229.679688 432.816406 229.679688 430.085938 L 229.679688 318.199219 C 229.679688 315.472656 230.847656 312.9375 232.601562 310.988281 L 311.75 231.847656 C 313.699219 229.898438 316.234375 228.925781 318.964844 228.925781 L 430.863281 228.925781 C 433.59375 228.925781 436.125 230.09375 438.074219 231.847656 L 517.222656 310.988281 C 519.171875 312.9375 520.148438 315.472656 520.148438 318.199219 L 520.148438 430.085938 C 520.148438 432.816406 518.980469 435.347656 517.222656 437.296875 L 438.074219 516.4375 C 436.125 518.191406 433.59375 519.359375 430.863281 519.359375 Z M 323.253906 498.894531 L 426.574219 498.894531 L 499.679688 425.796875 L 499.679688 322.488281 L 426.574219 249.390625 L 323.253906 249.390625 L 250.148438 322.488281 L 250.148438 425.796875 Z M 323.253906 498.894531 " fill-opacity="1" fill-rule="nonzero"/><path fill="#4f4f51" d="M 279.734375 117.351562 L 328.523438 235.132812 L 309.613281 242.964844 L 260.820312 125.183594 Z M 279.734375 117.351562 " fill-opacity="1" fill-rule="nonzero"/><path fill="#4f4f51" d="M 470.269531 117.417969 L 489.183594 125.253906 L 440.390625 243.03125 L 421.476562 235.199219 Z M 470.269531 117.417969 " fill-opacity="1" fill-rule="nonzero"/><path fill="#4f4f51" d="M 623.84375 260.058594 L 631.679688 278.964844 L 513.886719 327.753906 L 506.050781 308.84375 Z M 623.84375 260.058594 " fill-opacity="1" fill-rule="nonzero"/><path fill="#4f4f51" d="M 513.9375 420.535156 L 631.730469 469.320312 L 623.898438 488.230469 L 506.105469 439.445312 Z M 513.9375 420.535156 " fill-opacity="1" fill-rule="nonzero"/><path fill="#4f4f51" d="M 440.351562 505.199219 L 489.144531 622.976562 L 470.234375 630.808594 L 421.441406 513.03125 Z M 440.351562 505.199219 " fill-opacity="1" fill-rule="nonzero"/><path fill="#4f4f51" d="M 309.605469 505.339844 L 328.515625 513.171875 L 279.722656 630.949219 L 260.8125 623.117188 Z M 309.605469 505.339844 " fill-opacity="1" fill-rule="nonzero"/><path fill="#4f4f51" d="M 235.960938 420.660156 L 243.796875 439.566406 L 126.003906 488.355469 L 118.167969 469.445312 Z M 235.960938 420.660156 " fill-opacity="1" fill-rule="nonzero"/><path fill="#4f4f51" d="M 125.980469 259.890625 L 243.773438 308.675781 L 235.9375 327.585938 L 118.144531 278.800781 Z M 125.980469 259.890625 " fill-opacity="1" fill-rule="nonzero"/></svg>