<svg xmlns="http://www.w3.org/2000/svg" xmlns:xlink="http://www.w3.org/1999/xlink" width="1000" zoomAndPan="magnify" viewBox="0 0 750 734.999996" height="1000" preserveAspectRatio="xMidYMid meet" version="1.0"><defs><clipPath id="be9bc0cc4e"><path d="M 190 99 L 563 99 L 563 656.25 L 190 656.25 Z M 190 99 " clip-rule="nonzero"/></clipPath></defs><path fill="#61b2e3" d="M 224.449219 383.371094 L 376.320312 120.433594 L 528.195312 383.371094 C 595.714844 500.144531 511.363281 646.3125 376.320312 646.3125 C 241.277344 646.3125 156.925781 500.144531 224.449219 383.371094 Z M 224.449219 383.371094 " fill-opacity="1" fill-rule="nonzero"/><path fill="#a5daf6" d="M 292.984375 398.578125 L 374.496094 202.742188 L 258.714844 403.242188 C 234.179688 445.8125 234.179688 496.496094 258.714844 539.070312 C 266.625 552.855469 276.761719 564.816406 288.117188 574.75 C 268.449219 518.1875 270.070312 453.515625 292.984375 398.578125 Z M 292.984375 398.578125 " fill-opacity="1" fill-rule="nonzero"/><g clip-path="url(#be9bc0cc4e)"><path fill="#2b5974" d="M 376.320312 656.855469 C 309 656.855469 248.78125 622.1875 215.324219 563.800781 C 181.664062 505.617188 181.664062 436.082031 215.324219 377.898438 L 376.320312 99.144531 L 537.316406 378.101562 C 570.976562 436.285156 570.976562 505.820312 537.316406 564.003906 C 503.660156 622.1875 443.4375 656.855469 376.320312 656.855469 Z M 376.320312 141.71875 L 233.773438 388.644531 C 203.96875 440.136719 203.96875 501.765625 233.773438 553.261719 C 263.582031 604.753906 316.910156 635.570312 376.320312 635.570312 C 435.933594 635.570312 489.261719 604.753906 518.867188 553.261719 C 548.671875 501.765625 548.671875 440.136719 518.867188 388.644531 Z M 376.320312 141.71875 " fill-opacity="1" fill-rule="nonzero"/></g></svg>