<svg xmlns="http://www.w3.org/2000/svg" xmlns:xlink="http://www.w3.org/1999/xlink" width="100" zoomAndPan="magnify" viewBox="0 0 750 734.999996" height="100" preserveAspectRatio="xMidYMid meet" version="1.0"><path fill="#ffd200" d="M 335.917969 281.167969 L 311.988281 207.183594 L 374.828125 104.519531 L 437.671875 207.183594 L 413.738281 281.167969 Z M 335.917969 281.167969 " fill-opacity="1" fill-rule="nonzero"/><path fill="#ffd200" d="M 413.738281 466.953125 L 437.671875 540.9375 L 374.828125 643.601562 L 311.988281 540.9375 L 335.917969 466.953125 Z M 413.738281 466.953125 " fill-opacity="1" fill-rule="nonzero"/><path fill="#ffd200" d="M 467.8125 335.242188 L 541.613281 311.128906 L 644.460938 374.152344 L 541.613281 436.992188 L 467.8125 412.878906 Z M 467.8125 335.242188 " fill-opacity="1" fill-rule="nonzero"/><path fill="#ffd200" d="M 287.144531 412.878906 L 213.160156 436.992188 L 110.496094 374.152344 L 213.160156 311.128906 L 287.144531 335.242188 Z M 287.144531 412.878906 " fill-opacity="1" fill-rule="nonzero"/><path fill="#ffd200" d="M 413.007812 280.804688 L 448.265625 211.566406 L 565.363281 183.433594 L 537.230469 300.53125 L 467.996094 335.789062 Z M 413.007812 280.804688 " fill-opacity="1" fill-rule="nonzero"/><path fill="#fee77e" d="M 337.929688 221.617188 L 392.183594 132.832031 L 374.828125 104.519531 L 311.988281 207.183594 L 335.917969 281.167969 L 357.292969 281.167969 Z M 337.929688 221.617188 " fill-opacity="1" fill-rule="nonzero"/><path fill="#fee77e" d="M 337.929688 555.367188 L 361.859375 481.382812 L 418.308594 481.382812 L 413.738281 466.953125 L 335.917969 466.953125 L 311.988281 540.9375 L 374.828125 643.601562 L 383.414062 629.71875 Z M 337.929688 555.367188 " fill-opacity="1" fill-rule="nonzero"/><path fill="#fee77e" d="M 493.753906 349.671875 L 566.09375 326.109375 L 541.613281 311.128906 L 467.8125 335.242188 L 467.8125 412.878906 L 493.753906 421.464844 Z M 493.753906 349.671875 " fill-opacity="1" fill-rule="nonzero"/><path fill="#fee77e" d="M 136.433594 388.402344 L 239.28125 325.558594 L 287.144531 341.085938 L 287.144531 335.242188 L 213.160156 311.128906 L 110.496094 374.152344 L 213.160156 436.992188 L 214.804688 436.445312 Z M 136.433594 388.402344 " fill-opacity="1" fill-rule="nonzero"/><path fill="#fee77e" d="M 438.949219 295.234375 L 474.390625 226 L 560.246094 205.355469 L 565.363281 183.433594 L 448.265625 211.566406 L 413.007812 280.804688 L 467.996094 335.789062 L 475.667969 331.953125 Z M 438.949219 295.234375 " fill-opacity="1" fill-rule="nonzero"/><path fill="#fee77e" d="M 243.667969 462.019531 L 305.230469 430.597656 L 286.960938 412.332031 L 217.542969 447.589844 L 189.410156 564.6875 L 220.648438 557.195312 Z M 243.667969 462.019531 " fill-opacity="1" fill-rule="nonzero"/><path fill="#fee77e" d="M 437.671875 476.453125 L 490.28125 423.65625 L 467.996094 412.332031 L 413.007812 467.316406 L 448.265625 536.554688 L 471.101562 542.035156 Z M 437.671875 476.453125 " fill-opacity="1" fill-rule="nonzero"/><path fill="#fee77e" d="M 215.535156 197.867188 L 311.257812 220.882812 L 306.507812 211.566406 L 189.410156 183.433594 L 217.542969 300.53125 L 243.300781 313.683594 Z M 215.535156 197.867188 " fill-opacity="1" fill-rule="nonzero"/><path fill="#ffd200" d="M 341.949219 467.316406 L 306.507812 536.554688 L 189.410156 564.6875 L 217.542969 447.589844 L 286.960938 412.332031 Z M 341.949219 467.316406 " fill-opacity="1" fill-rule="nonzero"/><path fill="#ffd200" d="M 467.996094 412.332031 L 537.230469 447.589844 L 565.363281 564.6875 L 448.265625 536.554688 L 413.007812 467.316406 Z M 467.996094 412.332031 " fill-opacity="1" fill-rule="nonzero"/><path fill="#ffd200" d="M 286.960938 335.789062 L 217.542969 300.53125 L 189.410156 183.433594 L 306.507812 211.566406 L 341.949219 280.804688 Z M 286.960938 335.789062 " fill-opacity="1" fill-rule="nonzero"/><path fill="#be9f39" d="M 413.738281 290.667969 L 335.917969 290.667969 C 331.71875 290.667969 328.0625 287.925781 326.785156 284.089844 L 302.855469 210.105469 C 301.941406 207.367188 302.308594 204.445312 303.769531 202.070312 L 366.609375 99.402344 C 368.4375 96.480469 371.359375 94.835938 374.828125 94.835938 C 378.300781 94.835938 381.222656 96.480469 383.050781 99.402344 L 445.890625 202.070312 C 447.351562 204.445312 447.71875 207.367188 446.804688 210.105469 L 422.691406 284.089844 C 421.59375 288.109375 417.757812 290.667969 413.738281 290.667969 Z M 342.859375 271.488281 L 406.617188 271.488281 L 427.074219 208.460938 L 374.648438 122.785156 L 322.21875 208.460938 Z M 342.859375 271.488281 " fill-opacity="1" fill-rule="nonzero"/><path fill="#be9f39" d="M 374.828125 653.285156 C 371.542969 653.285156 368.4375 651.640625 366.609375 648.71875 L 303.769531 546.050781 C 302.308594 543.675781 301.941406 540.753906 302.855469 538.015625 L 326.785156 464.03125 C 328.0625 460.011719 331.71875 457.453125 335.917969 457.453125 L 413.738281 457.453125 C 417.941406 457.453125 421.59375 460.195312 422.875 464.03125 L 446.988281 538.015625 C 447.902344 540.753906 447.535156 543.675781 446.074219 546.050781 L 383.234375 648.71875 C 381.222656 651.457031 378.117188 653.285156 374.828125 653.285156 Z M 322.402344 539.660156 L 374.828125 625.335938 L 427.257812 539.660156 L 406.796875 476.632812 L 343.042969 476.632812 Z M 322.402344 539.660156 " fill-opacity="1" fill-rule="nonzero"/><path fill="#be9f39" d="M 541.613281 446.492188 C 540.699219 446.492188 539.605469 446.308594 538.691406 445.945312 L 464.707031 422.015625 C 460.6875 420.734375 458.128906 417.082031 458.128906 412.878906 L 458.128906 335.058594 C 458.128906 330.855469 460.871094 327.203125 464.707031 325.925781 L 538.691406 301.8125 C 541.433594 300.898438 544.355469 301.261719 546.730469 302.722656 L 649.394531 365.566406 C 652.316406 367.394531 653.960938 370.316406 653.960938 373.785156 C 653.960938 377.074219 652.316406 380.179688 649.394531 382.007812 L 546.730469 444.847656 C 545.085938 446.128906 543.441406 446.492188 541.613281 446.492188 Z M 477.3125 405.9375 L 540.335938 426.398438 L 626.011719 373.96875 L 540.519531 321.722656 L 477.496094 342.183594 L 477.496094 405.9375 Z M 477.3125 405.9375 " fill-opacity="1" fill-rule="nonzero"/><path fill="#be9f39" d="M 207.863281 446.492188 C 206.035156 446.492188 204.390625 445.945312 202.929688 445.03125 L 100.265625 382.191406 C 97.34375 380.363281 95.699219 377.441406 95.699219 373.96875 C 95.699219 370.679688 97.34375 367.574219 100.265625 365.75 L 202.929688 302.90625 C 205.304688 301.445312 208.226562 301.082031 210.96875 301.992188 L 284.953125 326.109375 C 288.972656 327.386719 291.527344 331.039062 291.527344 335.242188 L 291.527344 412.878906 C 291.527344 417.082031 288.789062 420.734375 284.953125 422.015625 L 210.96875 446.128906 C 209.871094 446.308594 208.957031 446.492188 207.863281 446.492188 Z M 123.648438 374.152344 L 209.324219 426.582031 L 272.347656 406.121094 L 272.347656 342.367188 L 209.324219 321.90625 Z M 123.648438 374.152344 " fill-opacity="1" fill-rule="nonzero"/><path fill="#be9f39" d="M 467.996094 345.472656 C 465.4375 345.472656 463.0625 344.558594 461.234375 342.730469 L 406.25 287.746094 C 403.328125 284.820312 402.597656 280.253906 404.421875 276.601562 L 439.679688 207.367188 C 440.960938 204.808594 443.332031 202.980469 445.890625 202.433594 L 562.988281 174.300781 C 566.277344 173.570312 569.5625 174.484375 571.9375 176.859375 C 574.3125 179.234375 575.226562 182.703125 574.496094 185.808594 L 546.363281 302.90625 C 545.632812 305.648438 543.804688 308.023438 541.433594 309.117188 L 472.195312 344.375 C 470.917969 345.105469 469.457031 345.472656 467.996094 345.472656 Z M 424.699219 278.976562 L 469.820312 324.097656 L 529.007812 293.957031 L 552.390625 196.40625 L 454.84375 219.789062 Z M 424.699219 278.976562 " fill-opacity="1" fill-rule="nonzero"/><path fill="#be9f39" d="M 184.113281 574.367188 C 181.558594 574.367188 179.183594 573.453125 177.355469 571.628906 C 174.980469 569.253906 174.066406 565.78125 174.796875 562.675781 L 202.929688 445.578125 C 203.660156 442.839844 205.488281 440.464844 207.863281 439.367188 L 277.097656 404.109375 C 280.75 402.285156 285.316406 403.015625 288.242188 405.9375 L 343.226562 460.925781 C 346.148438 463.847656 346.878906 468.414062 345.054688 472.066406 L 309.796875 541.304688 C 308.519531 543.859375 306.144531 545.6875 303.585938 546.234375 L 186.488281 574.367188 C 185.574219 574.183594 184.84375 574.367188 184.113281 574.367188 Z M 220.648438 454.164062 L 197.085938 551.714844 L 294.632812 528.332031 L 324.777344 469.144531 L 279.65625 424.023438 Z M 220.648438 454.164062 " fill-opacity="1" fill-rule="nonzero"/><path fill="#be9f39" d="M 565.363281 574.367188 C 564.632812 574.367188 563.902344 574.367188 563.171875 574.183594 L 446.074219 546.050781 C 443.332031 545.320312 440.960938 543.496094 439.863281 541.121094 L 404.605469 471.886719 C 402.78125 468.230469 403.511719 463.664062 406.433594 460.742188 L 461.417969 405.753906 C 464.339844 402.832031 468.910156 402.101562 472.5625 403.929688 L 541.796875 439.183594 C 544.355469 440.464844 546.179688 442.839844 546.730469 445.398438 L 574.863281 562.492188 C 575.59375 565.78125 574.679688 569.070312 572.304688 571.445312 C 570.476562 573.273438 567.921875 574.367188 565.363281 574.367188 Z M 454.84375 528.332031 L 552.390625 551.714844 L 529.007812 454.164062 L 469.820312 424.023438 L 424.699219 469.144531 Z M 454.84375 528.332031 " fill-opacity="1" fill-rule="nonzero"/><path fill="#be9f39" d="M 281.664062 345.472656 C 280.203125 345.472656 278.742188 345.105469 277.28125 344.375 L 208.046875 309.117188 C 205.488281 307.839844 203.660156 305.464844 203.113281 302.90625 L 174.980469 185.808594 C 174.25 182.523438 175.164062 179.234375 177.539062 176.859375 C 179.914062 174.484375 183.382812 173.570312 186.488281 174.300781 L 303.585938 202.433594 C 306.324219 203.164062 308.699219 204.992188 309.796875 207.367188 L 345.054688 276.601562 C 346.878906 280.253906 346.148438 284.820312 343.226562 287.746094 L 288.421875 342.546875 C 286.597656 344.375 284.039062 345.472656 281.664062 345.472656 Z M 220.648438 293.957031 L 279.835938 324.097656 L 324.957031 278.976562 L 294.816406 219.789062 L 197.085938 196.40625 Z M 220.648438 293.957031 " fill-opacity="1" fill-rule="nonzero"/><path fill="#f26624" d="M 329.160156 484.308594 L 264.675781 419.640625 L 264.675781 328.480469 L 329.160156 263.8125 L 420.5 263.8125 L 484.984375 328.480469 L 484.984375 419.640625 L 420.5 484.308594 Z M 329.160156 484.308594 " fill-opacity="1" fill-rule="nonzero"/><path fill="#db5d27" d="M 326.785156 266.371094 L 333.179688 273.496094 L 345.234375 299.800781 L 405.519531 299.800781 L 416.480469 273.496094 C 416.480469 273.496094 417.210938 266.554688 416.480469 266.554688 C 416.113281 266.554688 399.308594 265.277344 382.867188 263.996094 L 329.160156 263.996094 Z M 326.785156 266.371094 " fill-opacity="1" fill-rule="nonzero"/><path fill="#db5d27" d="M 422.875 481.933594 L 416.480469 474.808594 L 405.519531 448.503906 L 344.140625 448.503906 L 333.179688 474.808594 C 333.179688 474.808594 332.449219 481.75 333.179688 481.75 C 333.542969 481.75 350.351562 483.027344 366.792969 484.308594 L 420.5 484.308594 Z M 422.875 481.933594 " fill-opacity="1" fill-rule="nonzero"/><path fill="#db5d27" d="M 482.609375 325.925781 L 475.484375 332.320312 L 449.179688 343.460938 L 449.179688 404.84375 L 475.484375 415.800781 C 475.484375 415.800781 482.425781 416.535156 482.425781 415.800781 C 482.425781 415.4375 483.707031 398.628906 484.984375 382.191406 L 484.984375 328.480469 Z M 482.609375 325.925781 " fill-opacity="1" fill-rule="nonzero"/><path fill="#db5d27" d="M 267.050781 422.195312 L 274.175781 415.800781 L 300.480469 404.84375 L 300.480469 343.460938 L 274.175781 332.5 C 274.175781 332.5 267.234375 331.769531 267.234375 332.5 C 267.234375 332.867188 265.953125 349.671875 264.675781 366.113281 L 264.675781 419.820312 Z M 267.050781 422.195312 " fill-opacity="1" fill-rule="nonzero"/><path fill="#b84f27" d="M 420.5 493.804688 L 329.160156 493.804688 C 326.601562 493.804688 324.226562 492.710938 322.402344 491.066406 L 257.917969 426.582031 C 256.089844 424.753906 255.175781 422.378906 255.175781 419.820312 L 255.175781 328.480469 C 255.175781 325.925781 256.273438 323.550781 257.917969 321.722656 L 322.402344 257.238281 C 324.226562 255.410156 326.601562 254.496094 329.160156 254.496094 L 420.5 254.496094 C 423.058594 254.496094 425.429688 255.59375 427.257812 257.238281 L 491.742188 321.722656 C 493.570312 323.550781 494.484375 325.925781 494.484375 328.480469 L 494.484375 419.820312 C 494.484375 422.378906 493.386719 424.753906 491.742188 426.582031 L 427.257812 491.066406 C 425.429688 492.894531 423.058594 493.804688 420.5 493.804688 Z M 333.179688 474.625 L 416.480469 474.625 L 475.484375 415.621094 L 475.484375 332.320312 L 416.480469 273.3125 L 333.179688 273.3125 L 274.175781 332.320312 L 274.175781 415.621094 Z M 333.179688 474.625 " fill-opacity="1" fill-rule="nonzero"/><path fill="#f29264" d="M 344.140625 448.320312 L 300.664062 404.84375 L 300.664062 343.277344 L 344.140625 299.800781 L 405.519531 299.800781 L 448.996094 343.277344 L 448.996094 404.84375 L 405.519531 448.320312 Z M 344.140625 448.320312 " fill-opacity="1" fill-rule="nonzero"/><path fill="#f9ad88" d="M 405.519531 299.800781 L 365.695312 299.800781 L 305.777344 410.140625 L 344.140625 448.320312 L 345.601562 448.320312 L 418.855469 313.136719 Z M 405.519531 299.800781 " fill-opacity="1" fill-rule="nonzero"/><path fill="#f9ad88" d="M 381.222656 448.320312 L 442.054688 336.335938 L 422.324219 316.609375 L 350.898438 448.320312 Z M 381.222656 448.320312 " fill-opacity="1" fill-rule="nonzero"/></svg>