<svg xmlns="http://www.w3.org/2000/svg" xmlns:xlink="http://www.w3.org/1999/xlink" width="1000" zoomAndPan="magnify" viewBox="0 0 750 734.999996" height="1000" preserveAspectRatio="xMidYMid meet" version="1.0"><path fill="#ffffff" d="M 461.019531 521.234375 L 290.792969 521.234375 C 257.0625 521.234375 229.808594 493.980469 229.808594 460.246094 L 229.808594 290.015625 C 229.808594 256.28125 257.0625 229.023438 290.792969 229.023438 L 461.019531 229.023438 C 494.75 229.023438 522.003906 256.28125 522.003906 290.015625 L 522.003906 460.246094 C 522.003906 493.980469 494.75 521.234375 461.019531 521.234375 Z M 461.019531 521.234375 " fill-opacity="1" fill-rule="nonzero"/><path fill="#6b3314" d="M 461.019531 532.851562 L 290.792969 532.851562 C 250.804688 532.851562 218.191406 500.234375 218.191406 460.246094 L 218.191406 290.011719 C 218.191406 250.023438 250.804688 217.410156 290.792969 217.410156 L 461.019531 217.410156 C 501.007812 217.410156 533.621094 250.023438 533.621094 290.011719 L 533.621094 460.246094 C 533.621094 500.234375 501.007812 532.851562 461.019531 532.851562 Z M 290.570312 240.640625 C 263.539062 240.640625 241.425781 262.757812 241.425781 289.789062 L 241.425781 460.023438 C 241.425781 487.054688 263.539062 509.171875 290.570312 509.171875 L 460.796875 509.171875 C 487.824219 509.171875 509.941406 487.054688 509.941406 460.023438 L 509.941406 289.789062 C 509.941406 262.757812 487.824219 240.640625 460.796875 240.640625 Z M 290.570312 240.640625 " fill-opacity="1" fill-rule="nonzero"/><path fill="#f26922" d="M 488.050781 169.824219 L 561.324219 189.484375 L 580.980469 262.980469 L 527.367188 316.597656 L 453.871094 296.9375 L 434.210938 223.664062 Z M 488.050781 169.824219 " fill-opacity="1" fill-rule="nonzero"/><path fill="#6b3314" d="M 527.367188 328.4375 C 526.25 328.4375 525.355469 328.214844 524.238281 327.992188 L 450.742188 308.332031 C 446.722656 307.214844 443.59375 304.089844 442.476562 300.066406 L 422.820312 226.566406 C 421.703125 222.546875 422.820312 218.300781 425.945312 215.175781 L 479.785156 161.335938 C 482.6875 158.429688 487.15625 157.3125 491.175781 158.207031 L 564.671875 177.867188 C 568.695312 178.984375 571.820312 182.109375 572.9375 186.132812 L 592.597656 259.632812 C 593.714844 263.652344 592.597656 267.898438 589.46875 271.023438 L 535.632812 324.863281 C 533.398438 327.097656 530.496094 328.4375 527.367188 328.4375 Z M 463.476562 287.332031 L 523.792969 303.417969 L 568.023438 259.183594 L 551.941406 198.867188 L 491.625 182.78125 L 447.390625 227.015625 Z M 463.476562 287.332031 " fill-opacity="1" fill-rule="nonzero"/><path fill="#78cad2" d="M 224.222656 433.4375 L 297.71875 453.320312 L 317.378906 526.59375 L 263.761719 580.433594 L 190.265625 560.777344 L 170.609375 487.277344 Z M 224.222656 433.4375 " fill-opacity="1" fill-rule="nonzero"/><path fill="#6b3314" d="M 263.761719 592.050781 C 262.644531 592.050781 261.753906 591.828125 260.636719 591.605469 L 187.140625 571.945312 C 183.117188 570.828125 179.992188 567.703125 178.875 563.679688 L 159.214844 490.179688 C 158.097656 486.160156 159.214844 481.914062 162.34375 478.789062 L 216.179688 424.949219 C 219.085938 422.042969 223.550781 420.925781 227.574219 421.820312 L 301.070312 441.480469 C 305.089844 442.597656 308.21875 445.722656 309.335938 449.746094 L 328.992188 523.246094 C 330.109375 527.265625 328.992188 531.511719 325.867188 534.636719 L 272.027344 588.476562 C 269.796875 590.933594 266.667969 592.050781 263.761719 592.050781 Z M 199.871094 551.167969 L 260.1875 567.253906 L 304.421875 523.019531 L 288.335938 462.703125 L 228.019531 446.617188 L 183.789062 490.851562 Z M 199.871094 551.167969 " fill-opacity="1" fill-rule="nonzero"/><path fill="#9fcc3b" d="M 580.980469 487.277344 L 561.324219 560.777344 L 488.050781 580.433594 L 434.210938 526.59375 L 453.871094 453.320312 L 527.367188 433.4375 Z M 580.980469 487.277344 " fill-opacity="1" fill-rule="nonzero"/><path fill="#6b3314" d="M 488.050781 592.050781 C 484.921875 592.050781 482.019531 590.933594 479.785156 588.703125 L 425.945312 534.863281 C 423.042969 531.957031 421.925781 527.488281 422.820312 523.46875 L 442.476562 449.96875 C 443.59375 445.949219 446.722656 442.820312 450.742188 441.703125 L 524.238281 422.042969 C 528.261719 420.925781 532.503906 422.042969 535.632812 425.171875 L 589.46875 479.011719 C 592.375 481.914062 593.492188 486.382812 592.597656 490.40625 L 572.9375 563.902344 C 571.820312 567.925781 568.695312 571.050781 564.671875 572.167969 L 491.175781 591.828125 C 490.058594 591.828125 488.941406 592.050781 488.050781 592.050781 Z M 447.390625 523.019531 L 491.625 567.253906 L 551.941406 551.167969 L 568.023438 490.851562 L 523.792969 446.617188 L 463.476562 462.703125 Z M 447.390625 523.019531 " fill-opacity="1" fill-rule="nonzero"/><path fill="#c55ba2" d="M 317.378906 223.664062 L 297.71875 296.9375 L 224.222656 316.597656 L 170.609375 262.980469 L 190.265625 189.484375 L 263.761719 169.824219 Z M 317.378906 223.664062 " fill-opacity="1" fill-rule="nonzero"/><path fill="#6b3314" d="M 224.222656 328.4375 C 221.09375 328.4375 218.191406 327.320312 215.957031 325.085938 L 162.121094 271.246094 C 159.214844 268.34375 158.097656 263.875 158.992188 259.855469 L 178.652344 186.355469 C 179.769531 182.335938 182.894531 179.207031 186.917969 178.089844 L 260.414062 158.429688 C 264.433594 157.3125 268.679688 158.429688 271.804688 161.558594 L 325.644531 215.398438 C 328.546875 218.300781 329.664062 222.769531 328.769531 226.792969 L 309.113281 300.289062 C 307.996094 304.3125 304.867188 307.4375 300.847656 308.554688 L 227.351562 328.214844 C 226.457031 328.214844 225.339844 328.4375 224.222656 328.4375 Z M 183.789062 259.40625 L 228.019531 303.640625 L 288.335938 287.554688 L 304.421875 227.238281 L 260.1875 183.003906 L 199.871094 199.089844 Z M 183.789062 259.40625 " fill-opacity="1" fill-rule="nonzero"/><path fill="#ee223d" d="M 333.460938 108.164062 L 280.519531 174.292969 L 299.507812 256.949219 L 375.90625 293.8125 L 452.308594 256.949219 L 471.070312 174.292969 L 418.128906 108.164062 Z M 333.460938 108.164062 " fill-opacity="1" fill-rule="nonzero"/><path fill="#6b3314" d="M 375.90625 305.429688 C 374.121094 305.429688 372.332031 304.980469 370.769531 304.3125 L 294.367188 267.449219 C 291.242188 265.886719 288.785156 262.980469 288.113281 259.40625 L 269.347656 176.75 C 268.453125 173.175781 269.347656 169.601562 271.582031 166.917969 L 324.527344 100.570312 C 326.761719 97.886719 330.109375 96.101562 333.683594 96.101562 L 418.351562 96.101562 C 421.925781 96.101562 425.277344 97.664062 427.511719 100.570312 L 480.453125 166.917969 C 482.6875 169.601562 483.582031 173.398438 482.6875 176.75 L 463.921875 259.40625 C 463.027344 262.980469 460.796875 265.886719 457.667969 267.449219 L 381.265625 304.3125 C 379.257812 304.980469 377.46875 305.429688 375.90625 305.429688 Z M 309.558594 248.90625 L 375.683594 280.855469 L 441.808594 248.90625 L 458.113281 177.195312 L 412.320312 119.78125 L 338.824219 119.78125 L 293.027344 177.195312 Z M 309.558594 248.90625 " fill-opacity="1" fill-rule="nonzero"/><path fill="#60bb46" d="M 333.460938 642.09375 L 280.519531 575.96875 L 299.507812 493.308594 L 375.90625 456.449219 L 452.308594 493.308594 L 471.070312 575.96875 L 418.128906 642.09375 Z M 333.460938 642.09375 " fill-opacity="1" fill-rule="nonzero"/><path fill="#6b3314" d="M 418.128906 653.933594 L 333.460938 653.933594 C 329.886719 653.933594 326.535156 652.371094 324.304688 649.464844 L 271.359375 583.117188 C 269.125 580.433594 268.230469 576.636719 269.125 573.285156 L 287.890625 490.628906 C 288.785156 487.054688 291.019531 484.148438 294.144531 482.585938 L 370.546875 445.722656 C 373.671875 444.160156 377.46875 444.160156 380.820312 445.722656 L 457.222656 482.585938 C 460.347656 484.148438 462.804688 487.054688 463.476562 490.628906 L 482.242188 573.285156 C 483.136719 576.859375 482.242188 580.433594 480.007812 583.117188 L 427.0625 649.464844 C 425.054688 652.148438 421.703125 653.933594 418.128906 653.933594 Z M 339.046875 630.476562 L 412.542969 630.476562 L 458.339844 573.0625 L 442.03125 501.351562 L 375.90625 469.40625 L 309.78125 501.351562 L 293.472656 573.0625 Z M 339.046875 630.476562 " fill-opacity="1" fill-rule="nonzero"/><path fill="#f6ec3c" d="M 642.859375 332.683594 L 576.511719 279.960938 L 494.082031 298.726562 L 457.222656 375.128906 L 494.082031 451.53125 L 576.511719 470.296875 L 642.859375 417.574219 Z M 642.859375 332.683594 " fill-opacity="1" fill-rule="nonzero"/><path fill="#6b3314" d="M 576.511719 482.140625 C 575.621094 482.140625 574.726562 482.140625 573.832031 481.914062 L 491.175781 463.148438 C 487.601562 462.257812 484.699219 460.023438 483.136719 456.894531 L 446.273438 380.492188 C 444.710938 377.363281 444.710938 373.566406 446.273438 370.214844 L 483.136719 293.8125 C 484.699219 290.683594 487.601562 288.226562 491.175781 287.554688 L 573.832031 268.789062 C 577.40625 267.898438 580.980469 268.789062 583.660156 271.023438 L 650.007812 323.972656 C 652.691406 326.203125 654.476562 329.554688 654.476562 333.128906 L 654.476562 417.800781 C 654.476562 421.375 652.914062 424.726562 650.007812 426.957031 L 583.660156 479.90625 C 581.875 481.246094 579.195312 482.140625 576.511719 482.140625 Z M 502.125 441.257812 L 573.832031 457.566406 L 631.246094 411.765625 L 631.246094 338.269531 L 573.832031 292.472656 L 502.125 308.78125 L 470.179688 374.90625 Z M 502.125 441.257812 " fill-opacity="1" fill-rule="nonzero"/><path fill="#4471b8" d="M 108.730469 332.683594 L 175.078125 279.960938 L 257.730469 298.726562 L 294.367188 375.128906 L 257.730469 451.53125 L 175.078125 470.296875 L 108.730469 417.574219 Z M 108.730469 332.683594 " fill-opacity="1" fill-rule="nonzero"/><path fill="#6b3314" d="M 175.078125 482.140625 C 172.394531 482.140625 169.9375 481.246094 167.703125 479.679688 L 101.355469 426.734375 C 98.675781 424.5 96.890625 421.148438 96.890625 417.574219 L 96.890625 332.90625 C 96.890625 329.332031 98.453125 325.980469 101.355469 323.746094 L 167.703125 270.800781 C 170.386719 268.566406 174.183594 267.671875 177.535156 268.566406 L 260.1875 287.332031 C 263.761719 288.226562 266.667969 290.460938 268.230469 293.589844 L 305.089844 369.992188 C 306.65625 373.117188 306.65625 376.917969 305.089844 380.269531 L 268.230469 456.671875 C 266.667969 459.796875 263.761719 462.257812 260.1875 462.925781 L 177.535156 481.691406 C 176.863281 481.914062 175.96875 482.140625 175.078125 482.140625 Z M 120.570312 411.765625 L 177.980469 457.566406 L 249.6875 441.257812 L 281.632812 375.128906 L 249.6875 309.003906 L 177.980469 292.695312 L 120.570312 338.492188 Z M 120.570312 411.765625 " fill-opacity="1" fill-rule="nonzero"/><path fill="#ffffff" d="M 407.179688 428.96875 L 344.410156 428.96875 C 331.898438 428.96875 321.84375 418.917969 321.84375 406.40625 L 321.84375 343.628906 C 321.84375 331.121094 331.898438 321.066406 344.410156 321.066406 L 407.179688 321.066406 C 419.691406 321.066406 429.746094 331.121094 429.746094 343.628906 L 429.746094 406.40625 C 429.746094 418.917969 419.691406 428.96875 407.179688 428.96875 Z M 407.179688 428.96875 " fill-opacity="1" fill-rule="nonzero"/><path fill="#6b3314" d="M 407.179688 440.585938 L 344.410156 440.585938 C 325.644531 440.585938 310.230469 425.171875 310.230469 406.40625 L 310.230469 343.628906 C 310.230469 324.863281 325.644531 309.449219 344.410156 309.449219 L 407.179688 309.449219 C 425.945312 309.449219 441.359375 324.863281 441.359375 343.628906 L 441.359375 406.40625 C 441.359375 425.394531 425.945312 440.585938 407.179688 440.585938 Z M 344.410156 332.90625 C 338.601562 332.90625 333.683594 337.820312 333.683594 343.628906 L 333.683594 406.40625 C 333.683594 412.214844 338.601562 417.128906 344.410156 417.128906 L 407.179688 417.128906 C 412.988281 417.128906 417.90625 412.214844 417.90625 406.40625 L 417.90625 343.628906 C 417.90625 337.820312 412.988281 332.90625 407.179688 332.90625 Z M 344.410156 332.90625 " fill-opacity="1" fill-rule="nonzero"/></svg>