<svg xmlns="http://www.w3.org/2000/svg" xmlns:xlink="http://www.w3.org/1999/xlink" width="1000" zoomAndPan="magnify" viewBox="0 0 750 734.999996" height="1000" preserveAspectRatio="xMidYMid meet" version="1.0"><path fill="#ca76b0" d="M 537.371094 161.140625 C 522.949219 145.191406 507.214844 132.738281 489.296875 123.996094 C 459.359375 109.359375 422.867188 116.566406 401.671875 142.132812 C 394.898438 150.214844 387.6875 157.207031 378.070312 159.175781 C 368.457031 157.207031 361.246094 150.433594 354.472656 142.132812 C 333.058594 116.566406 296.785156 109.359375 266.847656 123.996094 C 249.148438 132.738281 233.195312 145.191406 218.773438 161.140625 C 173.320312 211.394531 146.445312 262.523438 167.203125 330.910156 C 189.492188 404.105469 237.566406 458.074219 281.488281 519.253906 C 308.800781 557.273438 353.378906 591.792969 377.851562 630.6875 C 402.546875 592.011719 446.90625 557.273438 474.21875 519.253906 C 518.140625 458.074219 566.433594 404.324219 588.503906 330.910156 C 609.699219 262.304688 582.824219 211.175781 537.371094 161.140625 Z M 537.371094 161.140625 " fill-opacity="1" fill-rule="nonzero"/><path fill="#643457" d="M 378.070312 642.046875 C 374.136719 642.046875 370.421875 640.082031 368.457031 636.804688 C 355.78125 616.921875 336.992188 597.257812 318.636719 578.464844 C 302.464844 561.640625 285.640625 544.164062 272.527344 526.027344 C 264.222656 514.445312 255.484375 502.867188 247.179688 491.722656 C 210.03125 442.34375 175.070312 395.585938 156.496094 334.40625 C 132.238281 254.21875 170.261719 197.847656 210.46875 153.492188 C 226.421875 136.015625 243.246094 123.121094 261.820312 113.945312 C 296.785156 96.683594 338.519531 105.425781 363.210938 135.140625 C 368.894531 142.132812 373.484375 145.847656 378.070312 147.59375 C 382.660156 145.847656 387.25 142.132812 392.929688 135.140625 C 417.625 105.425781 459.359375 96.902344 494.324219 113.945312 C 513.117188 123.121094 529.941406 136.015625 545.675781 153.492188 C 586.101562 197.847656 623.902344 254.21875 599.648438 334.40625 C 581.074219 395.585938 546.113281 442.34375 508.964844 491.722656 C 500.660156 502.867188 491.917969 514.445312 483.617188 526.027344 C 470.503906 544.164062 453.679688 561.640625 437.507812 578.464844 C 419.152344 597.476562 400.359375 616.921875 387.6875 636.804688 C 385.71875 640.082031 382.003906 642.046875 378.070312 642.046875 Z M 299.1875 127.929688 C 290.007812 127.929688 280.613281 130.113281 271.871094 134.265625 C 255.703125 142.132812 241.28125 153.492188 227.296875 168.789062 C 175.507812 225.816406 161.304688 271.917969 178.347656 327.632812 C 195.609375 384.878906 229.480469 430.109375 265.316406 477.957031 C 273.839844 489.101562 282.363281 500.898438 290.882812 512.699219 C 303.121094 529.523438 319.289062 546.347656 335.023438 562.515625 C 350.101562 578.027344 365.398438 593.980469 378.070312 610.585938 C 390.746094 593.980469 406.042969 578.027344 421.121094 562.515625 C 436.851562 546.347656 453.023438 529.523438 465.261719 512.699219 C 473.78125 500.898438 482.523438 489.320312 490.828125 477.957031 C 526.664062 430.109375 560.535156 385.097656 577.796875 327.632812 C 594.621094 271.917969 580.417969 225.816406 528.847656 168.789062 C 514.863281 153.492188 500.441406 142.132812 484.269531 134.265625 C 458.703125 121.8125 428.332031 127.929688 410.414062 149.5625 C 403.203125 158.300781 393.804688 167.695312 380.257812 170.316406 C 378.726562 170.535156 377.199219 170.535156 375.667969 170.316406 C 362.121094 167.476562 352.722656 158.300781 345.511719 149.5625 C 333.929688 135.578125 316.886719 127.929688 299.1875 127.929688 Z M 299.1875 127.929688 " fill-opacity="1" fill-rule="nonzero"/><path fill="#643457" d="M 382.878906 620.636719 L 527.539062 442.34375 L 399.488281 540.886719 L 378.289062 221.664062 L 378.070312 230.402344 L 378.070312 221.664062 L 356.65625 540.886719 L 228.605469 442.34375 L 373.484375 620.636719 L 373.265625 632.214844 L 378.070312 626.316406 L 382.878906 632.214844 Z M 382.878906 620.636719 " fill-opacity="1" fill-rule="nonzero"/><path fill="#e5a5ca" d="M 271.234375 221.609375 C 270.066406 223.101562 268.871094 224.570312 267.652344 226.011719 C 266.433594 227.457031 265.199219 228.867188 263.945312 230.246094 C 262.691406 231.628906 261.425781 232.96875 260.144531 234.273438 C 258.867188 235.578125 257.582031 236.835938 256.292969 238.050781 C 255.003906 239.265625 253.714844 240.429688 252.425781 241.546875 C 251.132812 242.660156 249.851562 243.71875 248.574219 244.722656 C 247.296875 245.726562 246.035156 246.667969 244.785156 247.550781 C 243.53125 248.429688 242.300781 249.25 241.085938 250 C 239.871094 250.753906 238.683594 251.4375 237.519531 252.054688 C 236.355469 252.667969 235.21875 253.214844 234.113281 253.6875 C 233.011719 254.160156 231.941406 254.558594 230.910156 254.882812 C 229.875 255.210938 228.882812 255.460938 227.929688 255.636719 C 226.976562 255.8125 226.070312 255.910156 225.207031 255.933594 C 224.34375 255.957031 223.53125 255.90625 222.765625 255.777344 C 222.003906 255.648438 221.292969 255.441406 220.632812 255.164062 C 219.976562 254.882812 219.371094 254.527344 218.824219 254.101562 C 218.28125 253.671875 217.792969 253.171875 217.363281 252.601562 C 216.933594 252.027344 216.566406 251.386719 216.257812 250.675781 C 215.949219 249.964844 215.707031 249.1875 215.523438 248.34375 C 215.339844 247.5 215.21875 246.59375 215.160156 245.628906 C 215.105469 244.660156 215.113281 243.636719 215.179688 242.554688 C 215.25 241.476562 215.382812 240.339844 215.578125 239.15625 C 215.777344 237.972656 216.035156 236.738281 216.351562 235.460938 C 216.671875 234.183594 217.054688 232.867188 217.496094 231.507812 C 217.9375 230.148438 218.4375 228.757812 218.992188 227.332031 C 219.550781 225.90625 220.164062 224.453125 220.835938 222.976562 C 221.503906 221.496094 222.226562 220 223 218.480469 C 223.773438 216.960938 224.597656 215.433594 225.46875 213.890625 C 226.34375 212.347656 227.257812 210.800781 228.21875 209.246094 C 229.179688 207.695312 230.183594 206.144531 231.222656 204.597656 C 232.265625 203.050781 233.339844 201.511719 234.453125 199.984375 C 235.5625 198.457031 236.703125 196.949219 237.875 195.457031 C 239.042969 193.964844 240.238281 192.496094 241.457031 191.050781 C 242.671875 189.609375 243.910156 188.199219 245.164062 186.816406 C 246.417969 185.4375 247.683594 184.09375 248.964844 182.792969 C 250.242188 181.488281 251.527344 180.226562 252.816406 179.011719 C 254.105469 177.796875 255.394531 176.632812 256.683594 175.519531 C 257.976562 174.40625 259.257812 173.347656 260.535156 172.34375 C 261.8125 171.339844 263.074219 170.398438 264.324219 169.515625 C 265.578125 168.632812 266.808594 167.816406 268.023438 167.066406 C 269.238281 166.3125 270.425781 165.628906 271.589844 165.011719 C 272.753906 164.398438 273.890625 163.851562 274.996094 163.378906 C 276.097656 162.90625 277.167969 162.507812 278.199219 162.179688 C 279.234375 161.855469 280.226562 161.605469 281.179688 161.429688 C 282.132812 161.253906 283.039062 161.152344 283.902344 161.128906 C 284.765625 161.105469 285.578125 161.160156 286.34375 161.289062 C 287.105469 161.417969 287.816406 161.621094 288.476562 161.902344 C 289.132812 162.183594 289.738281 162.535156 290.285156 162.964844 C 290.828125 163.394531 291.316406 163.894531 291.746094 164.464844 C 292.175781 165.039062 292.542969 165.679688 292.851562 166.390625 C 293.160156 167.101562 293.402344 167.878906 293.585938 168.722656 C 293.769531 169.566406 293.890625 170.46875 293.945312 171.4375 C 294.003906 172.402344 293.996094 173.429688 293.929688 174.507812 C 293.859375 175.589844 293.726562 176.722656 293.53125 177.910156 C 293.332031 179.09375 293.074219 180.324219 292.753906 181.605469 C 292.4375 182.882812 292.054688 184.199219 291.613281 185.558594 C 291.171875 186.914062 290.671875 188.308594 290.117188 189.734375 C 289.558594 191.160156 288.945312 192.609375 288.273438 194.089844 C 287.605469 195.566406 286.882812 197.066406 286.109375 198.585938 C 285.335938 200.101562 284.511719 201.632812 283.640625 203.175781 C 282.765625 204.71875 281.851562 206.265625 280.890625 207.820312 C 279.929688 209.371094 278.925781 210.921875 277.886719 212.46875 C 276.84375 214.015625 275.769531 215.554688 274.65625 217.078125 C 273.546875 218.605469 272.40625 220.117188 271.234375 221.609375 Z M 271.234375 221.609375 " fill-opacity="1" fill-rule="nonzero"/></svg>