<svg xmlns="http://www.w3.org/2000/svg" xmlns:xlink="http://www.w3.org/1999/xlink" width="100" zoomAndPan="magnify" viewBox="0 0 750 734.999996" height="100" preserveAspectRatio="xMidYMid meet" version="1.0"><path fill="#ffd146" d="M 630.035156 373.9375 C 630.035156 378.148438 629.933594 382.355469 629.726562 386.558594 C 629.519531 390.765625 629.210938 394.960938 628.796875 399.152344 C 628.386719 403.34375 627.871094 407.519531 627.253906 411.683594 C 626.632812 415.847656 625.914062 419.996094 625.09375 424.125 C 624.273438 428.253906 623.351562 432.359375 622.328125 436.445312 C 621.304688 440.53125 620.179688 444.585938 618.960938 448.613281 C 617.738281 452.644531 616.417969 456.640625 615 460.605469 C 613.582031 464.570312 612.066406 468.496094 610.453125 472.386719 C 608.84375 476.273438 607.136719 480.125 605.335938 483.929688 C 603.539062 487.734375 601.644531 491.496094 599.660156 495.207031 C 597.675781 498.921875 595.601562 502.582031 593.4375 506.195312 C 591.273438 509.804688 589.019531 513.363281 586.683594 516.863281 C 584.34375 520.363281 581.917969 523.804688 579.410156 527.1875 C 576.902344 530.566406 574.3125 533.886719 571.644531 537.140625 C 568.972656 540.394531 566.222656 543.582031 563.394531 546.703125 C 560.570312 549.820312 557.667969 552.871094 554.691406 555.847656 C 551.714844 558.824219 548.664062 561.726562 545.546875 564.554688 C 542.425781 567.378906 539.238281 570.128906 535.984375 572.800781 C 532.730469 575.472656 529.414062 578.0625 526.03125 580.570312 C 522.648438 583.078125 519.207031 585.5 515.707031 587.839844 C 512.207031 590.179688 508.652344 592.429688 505.039062 594.59375 C 501.429688 596.761719 497.765625 598.835938 494.054688 600.820312 C 490.339844 602.804688 486.582031 604.695312 482.777344 606.496094 C 478.96875 608.296875 475.121094 610.003906 471.234375 611.613281 C 467.34375 613.226562 463.417969 614.738281 459.453125 616.15625 C 455.488281 617.578125 451.492188 618.898438 447.464844 620.117188 C 443.433594 621.339844 439.378906 622.464844 435.292969 623.488281 C 431.210938 624.507812 427.105469 625.433594 422.976562 626.253906 C 418.84375 627.074219 414.699219 627.792969 410.535156 628.410156 C 406.371094 629.03125 402.191406 629.546875 398.003906 629.957031 C 393.8125 630.371094 389.617188 630.679688 385.410156 630.886719 C 381.207031 631.09375 377 631.195312 372.789062 631.195312 C 368.578125 631.195312 364.371094 631.09375 360.164062 630.886719 C 355.960938 630.679688 351.761719 630.371094 347.574219 629.957031 C 343.382812 629.546875 339.207031 629.03125 335.042969 628.410156 C 330.878906 627.792969 326.730469 627.074219 322.601562 626.253906 C 318.472656 625.433594 314.367188 624.507812 310.28125 623.488281 C 306.199219 622.464844 302.140625 621.339844 298.113281 620.117188 C 294.082031 618.898438 290.085938 617.578125 286.125 616.15625 C 282.160156 614.738281 278.234375 613.226562 274.34375 611.613281 C 270.453125 610.003906 266.605469 608.296875 262.800781 606.496094 C 258.992188 604.695312 255.234375 602.804688 251.523438 600.820312 C 247.808594 598.835938 244.148438 596.761719 240.535156 594.59375 C 236.925781 592.429688 233.367188 590.179688 229.867188 587.839844 C 226.367188 585.5 222.925781 583.078125 219.546875 580.570312 C 216.164062 578.0625 212.84375 575.472656 209.589844 572.800781 C 206.335938 570.128906 203.148438 567.378906 200.03125 564.554688 C 196.910156 561.726562 193.863281 558.824219 190.886719 555.847656 C 187.910156 552.871094 185.007812 549.820312 182.179688 546.703125 C 179.351562 543.582031 176.601562 540.394531 173.933594 537.140625 C 171.261719 533.886719 168.671875 530.566406 166.164062 527.1875 C 163.65625 523.804688 161.230469 520.363281 158.894531 516.863281 C 156.554688 513.363281 154.300781 509.804688 152.136719 506.195312 C 149.972656 502.582031 147.898438 498.921875 145.914062 495.207031 C 143.929688 491.496094 142.039062 487.734375 140.238281 483.929688 C 138.4375 480.121094 136.730469 476.273438 135.121094 472.386719 C 133.511719 468.496094 131.996094 464.570312 130.578125 460.605469 C 129.160156 456.640625 127.839844 452.644531 126.617188 448.613281 C 125.394531 444.585938 124.273438 440.53125 123.25 436.445312 C 122.226562 432.359375 121.304688 428.253906 120.480469 424.125 C 119.660156 419.996094 118.941406 415.847656 118.324219 411.683594 C 117.707031 407.519531 117.191406 403.34375 116.777344 399.152344 C 116.363281 394.960938 116.054688 390.765625 115.847656 386.558594 C 115.644531 382.355469 115.539062 378.148438 115.539062 373.9375 C 115.539062 369.726562 115.640625 365.519531 115.847656 361.3125 C 116.054688 357.109375 116.363281 352.910156 116.777344 348.71875 C 117.191406 344.53125 117.707031 340.351562 118.324219 336.1875 C 118.941406 332.023438 119.660156 327.875 120.480469 323.746094 C 121.304688 319.617188 122.226562 315.511719 123.25 311.425781 C 124.273438 307.34375 125.394531 303.285156 126.617188 299.257812 C 127.839844 295.230469 129.160156 291.230469 130.578125 287.269531 C 131.996094 283.304688 133.511719 279.378906 135.121094 275.488281 C 136.730469 271.597656 138.4375 267.75 140.238281 263.945312 C 142.039062 260.136719 143.929688 256.378906 145.914062 252.664062 C 147.898438 248.953125 149.972656 245.289062 152.136719 241.679688 C 154.300781 238.066406 156.554688 234.511719 158.894531 231.011719 C 161.230469 227.507812 163.65625 224.070312 166.164062 220.6875 C 168.671875 217.304688 171.261719 213.988281 173.933594 210.734375 C 176.601562 207.476562 179.351562 204.289062 182.179688 201.171875 C 185.007812 198.050781 187.910156 195.003906 190.886719 192.027344 C 193.863281 189.050781 196.910156 186.148438 200.03125 183.320312 C 203.148438 180.492188 206.335938 177.742188 209.589844 175.070312 C 212.84375 172.402344 216.164062 169.8125 219.546875 167.304688 C 222.925781 164.796875 226.367188 162.371094 229.867188 160.03125 C 233.367188 157.695312 236.925781 155.441406 240.535156 153.277344 C 244.148438 151.113281 247.808594 149.039062 251.523438 147.054688 C 255.234375 145.070312 258.992188 143.175781 262.800781 141.375 C 266.605469 139.574219 270.453125 137.871094 274.34375 136.257812 C 278.234375 134.648438 282.160156 133.132812 286.125 131.714844 C 290.085938 130.296875 294.082031 128.976562 298.113281 127.753906 C 302.140625 126.53125 306.199219 125.410156 310.28125 124.386719 C 314.367188 123.363281 318.472656 122.441406 322.601562 121.621094 C 326.730469 120.796875 330.878906 120.078125 335.042969 119.460938 C 339.207031 118.84375 343.382812 118.328125 347.574219 117.914062 C 351.761719 117.503906 355.960938 117.191406 360.164062 116.988281 C 364.371094 116.78125 368.578125 116.675781 372.789062 116.675781 C 377 116.675781 381.207031 116.78125 385.410156 116.988281 C 389.617188 117.191406 393.8125 117.503906 398.003906 117.914062 C 402.191406 118.328125 406.371094 118.84375 410.535156 119.460938 C 414.699219 120.078125 418.84375 120.796875 422.972656 121.621094 C 427.105469 122.441406 431.210938 123.363281 435.292969 124.386719 C 439.378906 125.410156 443.433594 126.53125 447.464844 127.753906 C 451.492188 128.976562 455.488281 130.296875 459.453125 131.714844 C 463.417969 133.132812 467.34375 134.648438 471.234375 136.257812 C 475.121094 137.871094 478.96875 139.574219 482.777344 141.375 C 486.582031 143.175781 490.339844 145.070312 494.054688 147.054688 C 497.765625 149.039062 501.429688 151.113281 505.039062 153.277344 C 508.652344 155.441406 512.207031 157.695312 515.707031 160.03125 C 519.207031 162.371094 522.648438 164.796875 526.03125 167.304688 C 529.414062 169.8125 532.730469 172.402344 535.984375 175.070312 C 539.238281 177.742188 542.425781 180.492188 545.546875 183.320312 C 548.664062 186.148438 551.714844 189.050781 554.691406 192.027344 C 557.667969 195.003906 560.570312 198.050781 563.394531 201.171875 C 566.222656 204.289062 568.972656 207.476562 571.644531 210.734375 C 574.3125 213.988281 576.902344 217.304688 579.410156 220.6875 C 581.917969 224.070312 584.34375 227.507812 586.683594 231.011719 C 589.019531 234.511719 591.273438 238.066406 593.4375 241.679688 C 595.601562 245.289062 597.675781 248.953125 599.660156 252.664062 C 601.644531 256.378906 603.539062 260.136719 605.335938 263.945312 C 607.136719 267.75 608.84375 271.597656 610.453125 275.488281 C 612.066406 279.378906 613.582031 283.304688 615 287.269531 C 616.417969 291.230469 617.738281 295.230469 618.960938 299.257812 C 620.179688 303.285156 621.304688 307.34375 622.328125 311.425781 C 623.351562 315.511719 624.273438 319.617188 625.09375 323.746094 C 625.914062 327.875 626.632812 332.023438 627.253906 336.1875 C 627.871094 340.351562 628.386719 344.53125 628.796875 348.71875 C 629.210938 352.910156 629.519531 357.109375 629.726562 361.3125 C 629.933594 365.519531 630.035156 369.726562 630.035156 373.9375 Z M 630.035156 373.9375 " fill-opacity="1" fill-rule="nonzero"/><path fill="#fee69b" d="M 150.222656 404.769531 C 150.222656 262.746094 265.457031 147.507812 407.472656 147.507812 C 464.703125 147.507812 517.503906 166.203125 560.28125 197.804688 C 513.457031 147.894531 446.78125 116.675781 372.789062 116.675781 C 230.769531 116.675781 115.539062 231.914062 115.539062 373.9375 C 115.539062 458.726562 156.582031 534.074219 219.980469 580.902344 C 176.816406 534.84375 150.222656 472.792969 150.222656 404.769531 Z M 150.222656 404.769531 " fill-opacity="1" fill-rule="nonzero"/><path fill="#f48240" d="M 372.789062 641.21875 C 225.375 641.21875 105.519531 521.355469 105.519531 373.9375 C 105.519531 226.519531 225.375 106.65625 372.789062 106.65625 C 520.199219 106.65625 640.058594 226.519531 640.058594 373.9375 C 640.058594 521.355469 520.199219 641.21875 372.789062 641.21875 Z M 372.789062 126.890625 C 236.550781 126.890625 125.753906 237.695312 125.753906 373.9375 C 125.753906 510.179688 236.550781 620.984375 372.789062 620.984375 C 509.023438 620.984375 619.824219 510.179688 619.824219 373.9375 C 619.824219 237.695312 509.023438 126.890625 372.789062 126.890625 Z M 372.789062 126.890625 " fill-opacity="1" fill-rule="nonzero"/><path fill="#ffd146" d="M 517.308594 373.9375 C 517.308594 376.300781 517.25 378.664062 517.136719 381.027344 C 517.019531 383.390625 516.84375 385.75 516.613281 388.101562 C 516.382812 390.457031 516.09375 392.804688 515.746094 395.144531 C 515.398438 397.484375 514.992188 399.8125 514.53125 402.132812 C 514.070312 404.453125 513.554688 406.757812 512.976562 409.054688 C 512.402344 411.347656 511.773438 413.628906 511.085938 415.890625 C 510.398438 418.152344 509.65625 420.398438 508.859375 422.625 C 508.0625 424.851562 507.214844 427.058594 506.308594 429.246094 C 505.402344 431.429688 504.445312 433.589844 503.433594 435.730469 C 502.421875 437.867188 501.359375 439.980469 500.246094 442.066406 C 499.128906 444.152344 497.964844 446.210938 496.75 448.238281 C 495.53125 450.265625 494.265625 452.265625 492.953125 454.230469 C 491.640625 456.199219 490.277344 458.132812 488.867188 460.03125 C 487.460938 461.929688 486.003906 463.796875 484.503906 465.625 C 483.003906 467.453125 481.460938 469.242188 479.871094 470.996094 C 478.28125 472.75 476.652344 474.460938 474.980469 476.132812 C 473.308594 477.804688 471.59375 479.4375 469.84375 481.023438 C 468.089844 482.613281 466.300781 484.15625 464.472656 485.65625 C 462.644531 487.160156 460.777344 488.613281 458.878906 490.023438 C 456.980469 491.429688 455.046875 492.792969 453.078125 494.105469 C 451.113281 495.421875 449.117188 496.6875 447.085938 497.902344 C 445.058594 499.117188 443 500.285156 440.914062 501.398438 C 438.828125 502.511719 436.71875 503.578125 434.578125 504.589844 C 432.441406 505.597656 430.277344 506.558594 428.09375 507.460938 C 425.910156 508.367188 423.703125 509.21875 421.476562 510.015625 C 419.25 510.8125 417.003906 511.554688 414.742188 512.242188 C 412.476562 512.925781 410.199219 513.558594 407.902344 514.132812 C 405.609375 514.707031 403.300781 515.226562 400.984375 515.6875 C 398.664062 516.148438 396.332031 516.554688 393.992188 516.898438 C 391.652344 517.246094 389.308594 517.535156 386.953125 517.769531 C 384.601562 518 382.242188 518.175781 379.878906 518.289062 C 377.515625 518.40625 375.152344 518.464844 372.789062 518.464844 C 370.421875 518.464844 368.058594 518.40625 365.695312 518.289062 C 363.335938 518.175781 360.976562 518 358.621094 517.769531 C 356.269531 517.535156 353.921875 517.246094 351.582031 516.898438 C 349.242188 516.554688 346.914062 516.148438 344.59375 515.6875 C 342.273438 515.226562 339.964844 514.707031 337.671875 514.132812 C 335.378906 513.558594 333.097656 512.925781 330.835938 512.242188 C 328.570312 511.554688 326.328125 510.8125 324.101562 510.015625 C 321.871094 509.21875 319.667969 508.367188 317.480469 507.460938 C 315.296875 506.558594 313.136719 505.597656 310.996094 504.589844 C 308.859375 503.578125 306.746094 502.515625 304.660156 501.398438 C 302.574219 500.285156 300.515625 499.117188 298.488281 497.902344 C 296.460938 496.6875 294.460938 495.421875 292.496094 494.105469 C 290.527344 492.792969 288.597656 491.429688 286.695312 490.023438 C 284.796875 488.613281 282.933594 487.160156 281.105469 485.65625 C 279.277344 484.15625 277.484375 482.613281 275.734375 481.023438 C 273.980469 479.4375 272.269531 477.804688 270.59375 476.132812 C 268.921875 474.460938 267.292969 472.75 265.703125 470.996094 C 264.117188 469.242188 262.570312 467.453125 261.070312 465.625 C 259.570312 463.796875 258.117188 461.929688 256.707031 460.03125 C 255.296875 458.132812 253.9375 456.199219 252.621094 454.230469 C 251.308594 452.265625 250.042969 450.265625 248.828125 448.238281 C 247.613281 446.210938 246.445312 444.152344 245.332031 442.066406 C 244.214844 439.980469 243.152344 437.867188 242.140625 435.730469 C 241.128906 433.59375 240.171875 431.429688 239.265625 429.246094 C 238.363281 427.058594 237.511719 424.855469 236.714844 422.625 C 235.917969 420.398438 235.175781 418.152344 234.488281 415.890625 C 233.800781 413.628906 233.171875 411.347656 232.597656 409.054688 C 232.023438 406.757812 231.503906 404.453125 231.042969 402.132812 C 230.582031 399.8125 230.175781 397.484375 229.832031 395.144531 C 229.484375 392.804688 229.195312 390.457031 228.960938 388.101562 C 228.730469 385.75 228.554688 383.390625 228.441406 381.027344 C 228.324219 378.664062 228.265625 376.300781 228.265625 373.9375 C 228.265625 371.570312 228.324219 369.207031 228.441406 366.84375 C 228.554688 364.480469 228.730469 362.125 228.960938 359.769531 C 229.195312 357.417969 229.484375 355.070312 229.832031 352.730469 C 230.175781 350.390625 230.582031 348.058594 231.042969 345.742188 C 231.503906 343.421875 232.023438 341.113281 232.597656 338.820312 C 233.171875 336.523438 233.800781 334.246094 234.488281 331.980469 C 235.175781 329.71875 235.917969 327.472656 236.714844 325.246094 C 237.511719 323.019531 238.363281 320.8125 239.265625 318.628906 C 240.171875 316.441406 241.128906 314.28125 242.140625 312.144531 C 243.152344 310.003906 244.214844 307.890625 245.332031 305.804688 C 246.445312 303.71875 247.613281 301.664062 248.828125 299.632812 C 250.042969 297.605469 251.308594 295.609375 252.621094 293.640625 C 253.9375 291.675781 255.296875 289.742188 256.707031 287.839844 C 258.117188 285.941406 259.570312 284.078125 261.070312 282.25 C 262.570312 280.421875 264.117188 278.628906 265.703125 276.878906 C 267.292969 275.125 268.921875 273.414062 270.59375 271.738281 C 272.269531 270.066406 273.980469 268.4375 275.734375 266.847656 C 277.484375 265.257812 279.277344 263.714844 281.105469 262.214844 C 282.933594 260.714844 284.796875 259.257812 286.695312 257.851562 C 288.597656 256.441406 290.527344 255.078125 292.496094 253.765625 C 294.460938 252.453125 296.460938 251.1875 298.488281 249.96875 C 300.515625 248.753906 302.574219 247.589844 304.660156 246.472656 C 306.746094 245.359375 308.859375 244.296875 310.996094 243.285156 C 313.136719 242.273438 315.296875 241.316406 317.480469 240.410156 C 319.667969 239.503906 321.871094 238.652344 324.101562 237.855469 C 326.328125 237.058594 328.570312 236.316406 330.835938 235.632812 C 333.097656 234.945312 335.378906 234.3125 337.671875 233.738281 C 339.964844 233.164062 342.273438 232.648438 344.59375 232.183594 C 346.914062 231.722656 349.242188 231.320312 351.582031 230.972656 C 353.921875 230.625 356.269531 230.335938 358.621094 230.105469 C 360.976562 229.871094 363.335938 229.699219 365.695312 229.582031 C 368.058594 229.464844 370.421875 229.410156 372.789062 229.410156 C 375.152344 229.410156 377.515625 229.464844 379.878906 229.582031 C 382.242188 229.699219 384.601562 229.871094 386.953125 230.105469 C 389.308594 230.335938 391.652344 230.625 393.992188 230.972656 C 396.332031 231.320312 398.664062 231.722656 400.984375 232.183594 C 403.300781 232.648438 405.609375 233.164062 407.902344 233.738281 C 410.199219 234.3125 412.476562 234.945312 414.742188 235.632812 C 417.003906 236.316406 419.25 237.058594 421.476562 237.855469 C 423.703125 238.652344 425.910156 239.503906 428.09375 240.410156 C 430.277344 241.316406 432.441406 242.273438 434.578125 243.285156 C 436.71875 244.296875 438.828125 245.359375 440.914062 246.472656 C 443 247.589844 445.058594 248.753906 447.085938 249.96875 C 449.117188 251.1875 451.113281 252.453125 453.078125 253.765625 C 455.046875 255.078125 456.980469 256.441406 458.878906 257.851562 C 460.777344 259.257812 462.644531 260.714844 464.472656 262.214844 C 466.300781 263.714844 468.089844 265.257812 469.84375 266.847656 C 471.59375 268.4375 473.308594 270.066406 474.980469 271.738281 C 476.652344 273.414062 478.28125 275.125 479.871094 276.878906 C 481.460938 278.628906 483.003906 280.421875 484.503906 282.25 C 486.003906 284.078125 487.460938 285.941406 488.867188 287.839844 C 490.277344 289.742188 491.640625 291.675781 492.953125 293.640625 C 494.265625 295.609375 495.53125 297.605469 496.75 299.632812 C 497.964844 301.664062 499.128906 303.71875 500.246094 305.804688 C 501.359375 307.890625 502.421875 310.003906 503.433594 312.144531 C 504.445312 314.28125 505.402344 316.441406 506.308594 318.628906 C 507.214844 320.8125 508.066406 323.019531 508.863281 325.246094 C 509.65625 327.472656 510.398438 329.71875 511.085938 331.980469 C 511.773438 334.246094 512.402344 336.523438 512.976562 338.820312 C 513.554688 341.113281 514.070312 343.421875 514.53125 345.742188 C 514.992188 348.058594 515.398438 350.390625 515.746094 352.730469 C 516.09375 355.070312 516.382812 357.417969 516.613281 359.769531 C 516.84375 362.125 517.019531 364.480469 517.136719 366.84375 C 517.25 369.207031 517.308594 371.570312 517.308594 373.9375 Z M 517.308594 373.9375 " fill-opacity="1" fill-rule="nonzero"/><path fill="#fee69b" d="M 261.988281 402.457031 C 261.988281 322.675781 326.734375 257.929688 406.507812 257.929688 C 434.066406 257.929688 459.886719 265.636719 481.855469 279.125 C 455.453125 248.679688 416.335938 229.410156 372.789062 229.410156 C 293.011719 229.410156 228.265625 294.15625 228.265625 373.9375 C 228.265625 426.160156 256.015625 471.832031 297.445312 497.265625 C 275.476562 471.832031 261.988281 438.683594 261.988281 402.457031 Z M 261.988281 402.457031 " fill-opacity="1" fill-rule="nonzero"/><path fill="#f48240" d="M 372.789062 528.484375 C 287.617188 528.484375 218.246094 459.113281 218.246094 373.9375 C 218.246094 288.761719 287.617188 219.386719 372.789062 219.386719 C 457.960938 219.386719 527.328125 288.761719 527.328125 373.9375 C 527.328125 459.113281 457.960938 528.484375 372.789062 528.484375 Z M 372.789062 239.621094 C 298.792969 239.621094 238.480469 299.9375 238.480469 373.9375 C 238.480469 447.933594 298.792969 508.25 372.789062 508.25 C 446.78125 508.25 507.097656 447.933594 507.097656 373.9375 C 507.097656 299.9375 446.976562 239.621094 372.789062 239.621094 Z M 372.789062 239.621094 " fill-opacity="1" fill-rule="nonzero"/></svg>