<svg xmlns="http://www.w3.org/2000/svg" xmlns:xlink="http://www.w3.org/1999/xlink" width="100" zoomAndPan="magnify" viewBox="0 0 750 734.999996" height="100" preserveAspectRatio="xMidYMid meet" version="1.0"><path fill="#ee2341" d="M 592.542969 263.378906 C 595.792969 223.949219 581.710938 122.550781 535.566406 111.285156 C 535.566406 169.132812 543.148438 226.113281 469.707031 228.496094 C 413.8125 230.449219 402.546875 178.015625 376.984375 139.667969 C 351.421875 178.015625 340.15625 230.449219 284.261719 228.496094 C 211.035156 226.113281 218.402344 169.132812 218.402344 111.285156 C 172.257812 122.550781 158.175781 223.949219 161.425781 263.378906 C 164.457031 301.078125 199.121094 344.191406 231.183594 364.992188 C 183.304688 416.988281 182.65625 510.371094 220.136719 567.785156 C 246.347656 608.082031 319.792969 644.480469 376.984375 642.746094 C 434.179688 644.480469 507.621094 608.082031 533.835938 567.785156 C 571.3125 510.371094 570.445312 416.988281 522.785156 364.992188 C 554.632812 344.191406 589.511719 301.078125 592.542969 263.378906 Z M 592.542969 263.378906 " fill-opacity="1" fill-rule="nonzero"/><path fill="#bd2035" d="M 380.667969 654.230469 C 379.367188 654.230469 378.066406 654.230469 376.984375 654.230469 C 317.191406 655.746094 239.632812 618.480469 210.601562 574.066406 C 170.957031 513.402344 173.558594 421.972656 214.71875 367.160156 C 183.957031 343.328125 153.191406 302.378906 150.160156 264.460938 C 148.644531 244.53125 151.027344 207.699219 160.558594 173.898438 C 172.472656 131.652344 191.539062 106.300781 215.800781 100.453125 L 229.882812 96.984375 L 229.882812 111.503906 C 229.882812 116.484375 229.882812 121.46875 229.667969 126.453125 C 229.019531 184.949219 231.183594 215.5 284.476562 217.449219 C 318.707031 218.53125 332.140625 197.300781 350.769531 162.199219 C 355.96875 152.667969 361.167969 142.917969 367.234375 133.601562 L 376.769531 119.300781 L 386.300781 133.601562 C 392.367188 142.699219 397.78125 152.667969 402.765625 162.199219 C 421.613281 197.082031 434.828125 218.53125 469.058594 217.449219 C 522.570312 215.714844 524.519531 184.949219 523.867188 126.453125 C 523.867188 121.46875 523.652344 116.484375 523.652344 111.503906 L 523.652344 96.984375 L 537.734375 100.453125 C 561.996094 106.300781 581.277344 131.867188 592.976562 173.898438 C 602.511719 207.699219 605.109375 244.53125 603.375 264.460938 C 600.34375 302.378906 569.582031 343.328125 538.816406 367.160156 C 579.761719 421.972656 582.578125 513.402344 542.933594 574.066406 C 514.984375 617.398438 440.027344 654.230469 380.667969 654.230469 Z M 376.984375 631.265625 L 377.417969 631.265625 C 429.628906 632.78125 499.605469 599.417969 524.519531 561.5 C 561.347656 505.171875 556.796875 418.507812 514.554688 372.574219 L 505.453125 362.609375 L 516.71875 355.242188 C 546.398438 335.960938 578.679688 296.09375 581.277344 262.296875 C 582.796875 244.3125 580.414062 210.730469 571.746094 179.75 C 565.464844 157 557.015625 140.316406 547.265625 130.785156 C 547.699219 181.699219 546.183594 237.378906 470.359375 239.980469 C 420.097656 241.714844 400.597656 205.097656 383.265625 172.816406 C 381.316406 169.132812 379.367188 165.449219 377.417969 161.984375 C 375.46875 165.667969 373.519531 169.351562 371.570312 172.816406 C 354.671875 204.449219 335.605469 239.980469 287.726562 239.980469 C 286.644531 239.980469 285.5625 239.980469 284.476562 239.980469 C 208.652344 237.378906 207.136719 181.699219 207.570312 130.785156 C 197.820312 140.316406 189.371094 157 183.089844 179.75 C 174.421875 210.730469 172.039062 244.3125 173.558594 262.296875 C 176.375 295.878906 208.4375 335.960938 238.117188 355.242188 L 249.382812 362.609375 L 240.28125 372.574219 C 198.039062 418.507812 193.488281 505.171875 230.316406 561.5 C 255.230469 599.632812 325.207031 632.78125 377.417969 631.265625 Z M 376.984375 631.265625 " fill-opacity="1" fill-rule="nonzero"/><path fill="#a41d2e" d="M 372.867188 611.765625 C 324.339844 611.765625 264.332031 579.050781 245.917969 550.667969 C 214.070312 501.921875 217.96875 424.789062 253.933594 385.574219 L 278.628906 358.707031 L 248.082031 338.777344 C 219.703125 320.359375 194.355469 284.613281 192.40625 260.78125 C 191.320312 248.648438 192.621094 230.664062 195.4375 212.898438 C 195.65625 211.816406 196.523438 211.164062 197.386719 210.949219 C 198.472656 210.730469 199.339844 211.382812 199.769531 212.246094 C 214.070312 242.582031 241.367188 257.960938 283.179688 259.480469 C 333.65625 261.210938 358.789062 231.53125 374.820312 205.53125 C 375.683594 204.230469 378.066406 204.230469 378.933594 205.53125 C 395.183594 231.53125 420.3125 261.210938 470.574219 259.480469 C 512.386719 257.960938 539.683594 242.582031 553.980469 212.246094 C 554.414062 211.382812 555.5 210.730469 556.363281 210.949219 C 557.449219 211.164062 558.316406 211.816406 558.316406 212.898438 C 561.132812 230.664062 562.214844 248.648438 561.347656 260.78125 C 559.398438 284.828125 533.835938 320.578125 505.671875 338.777344 L 475.125 358.707031 L 499.820312 385.574219 C 535.785156 424.789062 539.683594 501.921875 507.835938 550.667969 C 489.421875 578.832031 429.414062 611.765625 380.667969 611.765625 C 379.585938 611.765625 378.71875 611.765625 377.636719 611.765625 L 375.683594 611.765625 C 375.035156 611.765625 373.953125 611.765625 372.867188 611.765625 Z M 198.90625 220.914062 C 196.953125 235.863281 196.304688 250.378906 196.953125 260.5625 C 198.6875 283.3125 223.386719 317.328125 250.464844 335.09375 L 283.394531 356.542969 C 284.046875 356.976562 284.476562 357.625 284.476562 358.277344 C 284.476562 358.925781 284.261719 359.574219 283.828125 360.226562 L 257.179688 389.257812 C 222.519531 426.957031 219.050781 501.488281 249.597656 548.5 C 267.796875 576.234375 328.242188 608.734375 375.46875 607.433594 L 377.636719 607.433594 C 425.296875 608.734375 485.523438 576.234375 503.503906 548.5 C 534.265625 501.488281 530.800781 427.171875 495.921875 389.257812 L 469.925781 360.007812 C 469.492188 359.574219 469.273438 358.710938 469.273438 358.058594 C 469.273438 357.410156 469.707031 356.757812 470.359375 356.324219 L 503.289062 334.875 C 530.585938 317.109375 555.066406 283.09375 556.796875 260.347656 C 557.664062 250.378906 556.796875 235.648438 554.847656 220.699219 C 539.035156 248.214844 510.652344 262.730469 470.574219 264.03125 C 419.445312 265.761719 392.582031 235.648438 376.769531 210.949219 C 359.871094 237.164062 333.871094 265.761719 282.960938 264.03125 C 243.097656 262.945312 214.71875 248.214844 198.90625 220.914062 Z M 198.90625 220.914062 " fill-opacity="1" fill-rule="nonzero"/><path fill="#f38398" d="M 439.59375 469.203125 L 392.582031 546.117188 C 385.433594 557.816406 368.320312 557.816406 361.167969 546.117188 L 314.160156 469.203125 C 310.476562 463.355469 310.476562 455.988281 314.160156 449.921875 L 361.167969 373.007812 C 368.320312 361.308594 385.433594 361.308594 392.582031 373.007812 L 439.59375 449.921875 C 443.277344 455.773438 443.277344 463.355469 439.59375 469.203125 Z M 439.59375 469.203125 " fill-opacity="1" fill-rule="nonzero"/></svg>