<svg xmlns="http://www.w3.org/2000/svg" xmlns:xlink="http://www.w3.org/1999/xlink" width="1000" zoomAndPan="magnify" viewBox="0 0 750 734.999996" height="1000" preserveAspectRatio="xMidYMid meet" version="1.0"><path fill="#1db24b" d="M 344.5 343.644531 L 295.226562 294.375 L 295.226562 224.605469 L 344.5 175.335938 L 414.105469 175.335938 L 463.378906 224.605469 L 463.378906 294.375 L 414.105469 343.644531 Z M 344.5 343.644531 " fill-opacity="1" fill-rule="nonzero"/><path fill="#167139" d="M 414.105469 352.601562 L 344.5 352.601562 C 342.089844 352.601562 339.851562 351.570312 338.128906 350.019531 L 288.851562 300.75 C 287.128906 299.027344 286.269531 296.789062 286.269531 294.375 L 286.269531 224.605469 C 286.269531 222.195312 287.304688 219.957031 288.851562 218.234375 L 338.128906 168.964844 C 339.851562 167.242188 342.089844 166.378906 344.5 166.378906 L 414.105469 166.378906 C 416.515625 166.378906 418.757812 167.414062 420.480469 168.964844 L 469.753906 218.234375 C 471.476562 219.957031 472.335938 222.195312 472.335938 224.605469 L 472.335938 294.203125 C 472.335938 296.617188 471.304688 298.855469 469.753906 300.578125 L 420.480469 349.847656 C 418.757812 351.742188 416.515625 352.601562 414.105469 352.601562 Z M 348.121094 334.515625 L 410.316406 334.515625 L 454.246094 290.585938 L 454.246094 228.398438 L 410.316406 184.46875 L 348.121094 184.46875 L 304.1875 228.398438 L 304.1875 290.585938 Z M 348.121094 334.515625 " fill-opacity="1" fill-rule="nonzero"/><path fill="#aad15f" d="M 452.695312 345.023438 C 452.695312 297.820312 419.789062 259.578125 379.304688 259.578125 C 338.816406 259.578125 305.910156 297.820312 305.910156 345.023438 C 305.910156 385.507812 330.03125 419.273438 362.417969 428.230469 L 362.417969 627.71875 C 362.417969 637.023438 370 644.601562 379.304688 644.601562 C 388.605469 644.601562 396.1875 637.023438 396.1875 627.71875 L 396.1875 428.058594 C 428.578125 419.273438 452.695312 385.335938 452.695312 345.023438 Z M 452.695312 345.023438 " fill-opacity="1" fill-rule="nonzero"/><path fill="#789442" d="M 379.304688 653.558594 C 365.003906 653.558594 353.289062 641.84375 353.289062 627.546875 L 353.289062 434.605469 C 319.691406 422.027344 296.777344 386.023438 296.777344 344.851562 C 296.777344 292.652344 333.820312 250.273438 379.304688 250.273438 C 424.785156 250.273438 461.828125 292.652344 461.828125 344.851562 C 461.828125 386.023438 438.914062 421.855469 405.320312 434.605469 L 405.320312 627.546875 C 405.144531 642.015625 393.601562 653.558594 379.304688 653.558594 Z M 379.304688 268.535156 C 343.8125 268.535156 314.867188 302.816406 314.867188 345.023438 C 314.867188 380.855469 335.371094 411.347656 364.660156 419.445312 L 371.378906 421.339844 L 371.378906 627.71875 C 371.378906 632.027344 374.824219 635.644531 379.304688 635.644531 C 383.609375 635.644531 387.230469 632.199219 387.230469 627.71875 L 387.230469 421.167969 L 393.949219 419.273438 C 423.234375 411.175781 443.738281 380.511719 443.738281 344.851562 C 443.738281 302.816406 414.792969 268.535156 379.304688 268.535156 Z M 379.304688 268.535156 " fill-opacity="1" fill-rule="nonzero"/><path fill="#1db24b" d="M 262.667969 262.160156 L 240.613281 223.746094 L 262.667969 185.5 L 306.945312 185.5 L 329.167969 223.746094 L 306.945312 262.160156 Z M 262.667969 262.160156 " fill-opacity="1" fill-rule="nonzero"/><path fill="#167139" d="M 306.945312 271.121094 L 262.667969 271.121094 C 259.394531 271.121094 256.464844 269.398438 254.914062 266.640625 L 232.859375 228.222656 C 231.308594 225.46875 231.308594 222.023438 232.859375 219.265625 L 254.914062 180.851562 C 256.464844 178.09375 259.566406 176.371094 262.667969 176.371094 L 306.945312 176.371094 C 310.21875 176.371094 313.144531 178.09375 314.695312 180.851562 L 336.75 219.265625 C 338.300781 222.023438 338.300781 225.46875 336.75 228.222656 L 314.695312 266.640625 C 313.144531 269.398438 310.21875 271.121094 306.945312 271.121094 Z M 267.835938 253.03125 L 301.601562 253.03125 L 318.488281 223.746094 L 301.601562 194.460938 L 267.835938 194.460938 L 250.949219 223.746094 Z M 267.835938 253.03125 " fill-opacity="1" fill-rule="nonzero"/><path fill="#1db24b" d="M 336.75 182.226562 L 314.523438 143.984375 L 336.75 105.566406 L 381.027344 105.566406 L 403.078125 143.984375 L 381.027344 182.226562 Z M 336.75 182.226562 " fill-opacity="1" fill-rule="nonzero"/><path fill="#167139" d="M 381.027344 191.359375 L 336.75 191.359375 C 333.476562 191.359375 330.546875 189.636719 328.996094 186.878906 L 306.945312 148.464844 C 305.394531 145.707031 305.394531 142.261719 306.945312 139.503906 L 328.996094 101.089844 C 330.546875 98.332031 333.648438 96.609375 336.75 96.609375 L 381.027344 96.609375 C 384.300781 96.609375 387.230469 98.332031 388.777344 101.089844 L 410.832031 139.503906 C 412.382812 142.261719 412.382812 145.707031 410.832031 148.464844 L 388.777344 186.707031 C 387.230469 189.636719 384.300781 191.359375 381.027344 191.359375 Z M 341.917969 173.269531 L 375.683594 173.269531 L 392.570312 143.984375 L 375.683594 114.699219 L 341.917969 114.699219 L 325.035156 143.984375 Z M 341.917969 173.269531 " fill-opacity="1" fill-rule="nonzero"/><path fill="#1db24b" d="M 427.371094 223.746094 L 410.144531 193.769531 L 427.371094 163.796875 L 462.171875 163.796875 L 479.402344 193.769531 L 462.171875 223.746094 Z M 427.371094 223.746094 " fill-opacity="1" fill-rule="nonzero"/><path fill="#167139" d="M 462.171875 232.875 L 427.542969 232.875 C 424.269531 232.875 421.339844 231.152344 419.789062 228.398438 L 402.390625 198.421875 C 400.839844 195.664062 400.839844 192.21875 402.390625 189.464844 L 419.789062 159.488281 C 421.339844 156.730469 424.441406 155.007812 427.542969 155.007812 L 462.171875 155.007812 C 465.445312 155.007812 468.375 156.730469 469.925781 159.488281 L 487.328125 189.464844 C 488.878906 192.21875 488.878906 195.664062 487.328125 198.421875 L 469.925781 228.398438 C 468.375 231.152344 465.273438 232.875 462.171875 232.875 Z M 432.539062 214.789062 L 456.832031 214.789062 L 468.890625 193.769531 L 456.832031 172.753906 L 432.539062 172.753906 L 420.480469 193.769531 Z M 432.539062 214.789062 " fill-opacity="1" fill-rule="nonzero"/><path fill="#1db24b" d="M 463.035156 286.625 L 452.695312 268.707031 L 463.035156 250.621094 L 483.878906 250.621094 L 494.21875 268.707031 L 483.878906 286.625 Z M 463.035156 286.625 " fill-opacity="1" fill-rule="nonzero"/><path fill="#167139" d="M 483.878906 295.753906 L 463.207031 295.753906 C 459.933594 295.753906 457.003906 294.03125 455.453125 291.273438 L 445.117188 273.359375 C 443.566406 270.601562 443.566406 267.15625 445.117188 264.402344 L 455.453125 246.484375 C 457.003906 243.726562 460.105469 242.003906 463.207031 242.003906 L 483.878906 242.003906 C 487.152344 242.003906 490.082031 243.726562 491.632812 246.484375 L 501.972656 264.402344 C 503.519531 267.15625 503.519531 270.601562 501.972656 273.359375 L 491.632812 291.273438 C 490.082031 294.03125 487.152344 295.753906 483.878906 295.753906 Z M 468.375 277.664062 L 478.710938 277.664062 L 483.878906 268.707031 L 478.710938 259.75 L 468.375 259.75 L 463.207031 268.707031 Z M 468.375 277.664062 " fill-opacity="1" fill-rule="nonzero"/><path fill="#aad15f" d="M 264.734375 326.417969 C 255.257812 353.980469 261.460938 385.679688 283.339844 407.558594 C 305.222656 429.4375 337.09375 435.636719 364.488281 426.164062 C 373.960938 398.597656 367.761719 366.902344 345.878906 345.023438 C 323.828125 323.144531 292.125 316.945312 264.734375 326.417969 Z M 264.734375 326.417969 " fill-opacity="1" fill-rule="nonzero"/><path fill="#789442" d="M 338.988281 439.601562 C 316.074219 439.601562 293.503906 430.640625 276.964844 414.105469 C 253.363281 390.503906 245.265625 355.015625 256.117188 323.488281 L 257.496094 319.355469 L 261.632812 317.976562 C 293.160156 307.125 328.652344 315.222656 352.253906 338.820312 C 375.859375 362.421875 383.957031 397.910156 373.101562 429.4375 L 371.722656 433.570312 L 367.589844 434.949219 C 358.113281 438.050781 348.636719 439.601562 338.988281 439.601562 Z M 271.96875 333.652344 C 265.25 357.769531 271.796875 383.265625 289.714844 401.183594 C 307.632812 419.101562 333.128906 425.644531 357.25 418.925781 C 363.96875 394.808594 357.421875 369.3125 339.503906 351.398438 C 321.585938 333.480469 296.089844 326.933594 271.96875 333.652344 Z M 271.96875 333.652344 " fill-opacity="1" fill-rule="nonzero"/><path fill="#aad15f" d="M 496.457031 326.417969 C 505.933594 353.980469 499.730469 385.679688 477.851562 407.558594 C 455.96875 429.4375 424.097656 435.636719 396.703125 426.164062 C 387.230469 398.597656 393.429688 366.902344 415.3125 345.023438 C 437.363281 323.144531 469.0625 316.945312 496.457031 326.417969 Z M 496.457031 326.417969 " fill-opacity="1" fill-rule="nonzero"/><path fill="#789442" d="M 422.203125 439.601562 C 412.554688 439.601562 403.078125 438.050781 393.777344 434.777344 L 389.640625 433.398438 L 388.261719 429.261719 C 377.40625 397.738281 385.503906 362.25 409.109375 338.648438 C 432.710938 315.046875 468.203125 306.953125 499.730469 317.804688 L 503.867188 319.183594 L 505.246094 323.316406 C 516.097656 354.84375 508 390.332031 484.398438 413.929688 C 467.6875 430.640625 445.117188 439.601562 422.203125 439.601562 Z M 403.941406 418.925781 C 428.058594 425.644531 453.558594 419.101562 471.476562 401.183594 C 489.394531 383.265625 495.941406 357.769531 489.222656 333.652344 C 465.101562 326.933594 439.601562 333.480469 421.6875 351.398438 C 403.769531 369.3125 397.222656 394.808594 403.941406 418.925781 Z M 403.941406 418.925781 " fill-opacity="1" fill-rule="nonzero"/></svg>