<svg xmlns="http://www.w3.org/2000/svg" style="display: none">
  <symbol id="icon-boulder-badge" viewBox="0 0 750 734.999996">
    <path
      fill="#9a9a9b"
      d="M 270.226562 626.957031 L 122.070312 478.816406 L 122.070312 269.46875 L 270.226562 121.328125 L 479.597656 121.328125 L 627.757812 269.46875 L 627.757812 478.816406 L 479.597656 626.957031 Z M 270.226562 626.957031 "
      fill-opacity="1"
      fill-rule="nonzero" />
    <path
      fill="#4f4f51"
      d="M 479.597656 637.09375 L 270.226562 637.09375 C 267.5 637.09375 264.964844 635.925781 263.015625 634.171875 L 114.855469 486.027344 C 112.90625 484.078125 111.933594 481.546875 111.933594 478.816406 L 111.933594 269.46875 C 111.933594 266.738281 113.101562 264.207031 114.855469 262.257812 L 263.015625 114.113281 C 264.964844 112.164062 267.5 111.191406 270.226562 111.191406 L 479.792969 111.191406 C 482.523438 111.191406 485.058594 112.359375 487.007812 114.113281 L 635.167969 262.257812 C 637.117188 264.207031 638.089844 266.738281 638.089844 269.46875 L 638.089844 479.011719 C 638.089844 481.742188 636.921875 484.273438 635.167969 486.222656 L 487.007812 634.367188 C 485.058594 636.121094 482.328125 637.09375 479.597656 637.09375 Z M 274.515625 616.628906 L 475.503906 616.628906 L 617.621094 474.527344 L 617.621094 273.5625 L 475.503906 131.464844 L 274.515625 131.464844 L 132.402344 273.5625 L 132.402344 474.527344 Z M 274.515625 616.628906 "
      fill-opacity="1"
      fill-rule="nonzero" />
    <path
      fill="#9a9a9b"
      d="M 318.964844 509.226562 L 239.816406 430.085938 L 239.816406 318.199219 L 318.964844 239.0625 L 430.863281 239.0625 L 510.011719 318.199219 L 510.011719 430.085938 L 430.863281 509.226562 Z M 318.964844 509.226562 "
      fill-opacity="1"
      fill-rule="nonzero" />
    <path
      fill="#bdbcbd"
      d="M 428.523438 239.0625 L 338.070312 239.0625 L 239.816406 420.144531 L 239.816406 430.085938 L 294.984375 485.25 Z M 428.523438 239.0625 "
      fill-opacity="1"
      fill-rule="nonzero" />
    <path
      fill="#bdbcbd"
      d="M 378.617188 509.226562 L 492.074219 300.265625 L 453.671875 261.867188 L 319.550781 509.226562 Z M 378.617188 509.226562 "
      fill-opacity="1"
      fill-rule="nonzero" />
    <path
      fill="#4f4f51"
      d="M 430.863281 519.359375 L 318.964844 519.359375 C 316.234375 519.359375 313.699219 518.191406 311.75 516.4375 L 232.601562 437.296875 C 230.652344 435.347656 229.679688 432.816406 229.679688 430.085938 L 229.679688 318.199219 C 229.679688 315.472656 230.847656 312.9375 232.601562 310.988281 L 311.75 231.847656 C 313.699219 229.898438 316.234375 228.925781 318.964844 228.925781 L 430.863281 228.925781 C 433.59375 228.925781 436.125 230.09375 438.074219 231.847656 L 517.222656 310.988281 C 519.171875 312.9375 520.148438 315.472656 520.148438 318.199219 L 520.148438 430.085938 C 520.148438 432.816406 518.980469 435.347656 517.222656 437.296875 L 438.074219 516.4375 C 436.125 518.191406 433.59375 519.359375 430.863281 519.359375 Z M 323.253906 498.894531 L 426.574219 498.894531 L 499.679688 425.796875 L 499.679688 322.488281 L 426.574219 249.390625 L 323.253906 249.390625 L 250.148438 322.488281 L 250.148438 425.796875 Z M 323.253906 498.894531 "
      fill-opacity="1"
      fill-rule="nonzero" />
    <path
      fill="#4f4f51"
      d="M 279.734375 117.351562 L 328.523438 235.132812 L 309.613281 242.964844 L 260.820312 125.183594 Z M 279.734375 117.351562 "
      fill-opacity="1"
      fill-rule="nonzero" />
    <path
      fill="#4f4f51"
      d="M 470.269531 117.417969 L 489.183594 125.253906 L 440.390625 243.03125 L 421.476562 235.199219 Z M 470.269531 117.417969 "
      fill-opacity="1"
      fill-rule="nonzero" />
    <path
      fill="#4f4f51"
      d="M 623.84375 260.058594 L 631.679688 278.964844 L 513.886719 327.753906 L 506.050781 308.84375 Z M 623.84375 260.058594 "
      fill-opacity="1"
      fill-rule="nonzero" />
    <path
      fill="#4f4f51"
      d="M 513.9375 420.535156 L 631.730469 469.320312 L 623.898438 488.230469 L 506.105469 439.445312 Z M 513.9375 420.535156 "
      fill-opacity="1"
      fill-rule="nonzero" />
    <path
      fill="#4f4f51"
      d="M 440.351562 505.199219 L 489.144531 622.976562 L 470.234375 630.808594 L 421.441406 513.03125 Z M 440.351562 505.199219 "
      fill-opacity="1"
      fill-rule="nonzero" />
    <path
      fill="#4f4f51"
      d="M 309.605469 505.339844 L 328.515625 513.171875 L 279.722656 630.949219 L 260.8125 623.117188 Z M 309.605469 505.339844 "
      fill-opacity="1"
      fill-rule="nonzero" />
    <path
      fill="#4f4f51"
      d="M 235.960938 420.660156 L 243.796875 439.566406 L 126.003906 488.355469 L 118.167969 469.445312 Z M 235.960938 420.660156 "
      fill-opacity="1"
      fill-rule="nonzero" />
    <path
      fill="#4f4f51"
      d="M 125.980469 259.890625 L 243.773438 308.675781 L 235.9375 327.585938 L 118.144531 278.800781 Z M 125.980469 259.890625 "
      fill-opacity="1"
      fill-rule="nonzero" />
  </symbol>

  <symbol id="icon-cascade-badge" viewBox="0 0 750 734.999996">
    <defs>
      <clipPath id="be9bc0cc4e">
        <path
          d="M 190 99 L 563 99 L 563 656.25 L 190 656.25 Z M 190 99 "
          clip-rule="nonzero" />
      </clipPath>
    </defs>
    <path
      fill="#61b2e3"
      d="M 224.449219 383.371094 L 376.320312 120.433594 L 528.195312 383.371094 C 595.714844 500.144531 511.363281 646.3125 376.320312 646.3125 C 241.277344 646.3125 156.925781 500.144531 224.449219 383.371094 Z M 224.449219 383.371094 "
      fill-opacity="1"
      fill-rule="nonzero" />
    <path
      fill="#a5daf6"
      d="M 292.984375 398.578125 L 374.496094 202.742188 L 258.714844 403.242188 C 234.179688 445.8125 234.179688 496.496094 258.714844 539.070312 C 266.625 552.855469 276.761719 564.816406 288.117188 574.75 C 268.449219 518.1875 270.070312 453.515625 292.984375 398.578125 Z M 292.984375 398.578125 "
      fill-opacity="1"
      fill-rule="nonzero" />
    <g clip-path="url(#be9bc0cc4e)">
      <path
        fill="#2b5974"
        d="M 376.320312 656.855469 C 309 656.855469 248.78125 622.1875 215.324219 563.800781 C 181.664062 505.617188 181.664062 436.082031 215.324219 377.898438 L 376.320312 99.144531 L 537.316406 378.101562 C 570.976562 436.285156 570.976562 505.820312 537.316406 564.003906 C 503.660156 622.1875 443.4375 656.855469 376.320312 656.855469 Z M 376.320312 141.71875 L 233.773438 388.644531 C 203.96875 440.136719 203.96875 501.765625 233.773438 553.261719 C 263.582031 604.753906 316.910156 635.570312 376.320312 635.570312 C 435.933594 635.570312 489.261719 604.753906 518.867188 553.261719 C 548.671875 501.765625 548.671875 440.136719 518.867188 388.644531 Z M 376.320312 141.71875 "
        fill-opacity="1"
        fill-rule="nonzero" />
    </g>
  </symbol>

  <symbol id="icon-thunder-badge" viewBox="0 0 750 734.999996">
    <path
      fill="#ffd200"
      d="M 335.917969 281.167969 L 311.988281 207.183594 L 374.828125 104.519531 L 437.671875 207.183594 L 413.738281 281.167969 Z M 335.917969 281.167969 "
      fill-opacity="1"
      fill-rule="nonzero" />
    <path
      fill="#ffd200"
      d="M 413.738281 466.953125 L 437.671875 540.9375 L 374.828125 643.601562 L 311.988281 540.9375 L 335.917969 466.953125 Z M 413.738281 466.953125 "
      fill-opacity="1"
      fill-rule="nonzero" />
    <path
      fill="#ffd200"
      d="M 467.8125 335.242188 L 541.613281 311.128906 L 644.460938 374.152344 L 541.613281 436.992188 L 467.8125 412.878906 Z M 467.8125 335.242188 "
      fill-opacity="1"
      fill-rule="nonzero" />
    <path
      fill="#ffd200"
      d="M 287.144531 412.878906 L 213.160156 436.992188 L 110.496094 374.152344 L 213.160156 311.128906 L 287.144531 335.242188 Z M 287.144531 412.878906 "
      fill-opacity="1"
      fill-rule="nonzero" />
    <path
      fill="#ffd200"
      d="M 413.007812 280.804688 L 448.265625 211.566406 L 565.363281 183.433594 L 537.230469 300.53125 L 467.996094 335.789062 Z M 413.007812 280.804688 "
      fill-opacity="1"
      fill-rule="nonzero" />
    <path
      fill="#fee77e"
      d="M 337.929688 221.617188 L 392.183594 132.832031 L 374.828125 104.519531 L 311.988281 207.183594 L 335.917969 281.167969 L 357.292969 281.167969 Z M 337.929688 221.617188 "
      fill-opacity="1"
      fill-rule="nonzero" />
    <path
      fill="#fee77e"
      d="M 337.929688 555.367188 L 361.859375 481.382812 L 418.308594 481.382812 L 413.738281 466.953125 L 335.917969 466.953125 L 311.988281 540.9375 L 374.828125 643.601562 L 383.414062 629.71875 Z M 337.929688 555.367188 "
      fill-opacity="1"
      fill-rule="nonzero" />
    <path
      fill="#fee77e"
      d="M 493.753906 349.671875 L 566.09375 326.109375 L 541.613281 311.128906 L 467.8125 335.242188 L 467.8125 412.878906 L 493.753906 421.464844 Z M 493.753906 349.671875 "
      fill-opacity="1"
      fill-rule="nonzero" />
    <path
      fill="#fee77e"
      d="M 136.433594 388.402344 L 239.28125 325.558594 L 287.144531 341.085938 L 287.144531 335.242188 L 213.160156 311.128906 L 110.496094 374.152344 L 213.160156 436.992188 L 214.804688 436.445312 Z M 136.433594 388.402344 "
      fill-opacity="1"
      fill-rule="nonzero" />
    <path
      fill="#fee77e"
      d="M 438.949219 295.234375 L 474.390625 226 L 560.246094 205.355469 L 565.363281 183.433594 L 448.265625 211.566406 L 413.007812 280.804688 L 467.996094 335.789062 L 475.667969 331.953125 Z M 438.949219 295.234375 "
      fill-opacity="1"
      fill-rule="nonzero" />
    <path
      fill="#fee77e"
      d="M 243.667969 462.019531 L 305.230469 430.597656 L 286.960938 412.332031 L 217.542969 447.589844 L 189.410156 564.6875 L 220.648438 557.195312 Z M 243.667969 462.019531 "
      fill-opacity="1"
      fill-rule="nonzero" />
    <path
      fill="#fee77e"
      d="M 437.671875 476.453125 L 490.28125 423.65625 L 467.996094 412.332031 L 413.007812 467.316406 L 448.265625 536.554688 L 471.101562 542.035156 Z M 437.671875 476.453125 "
      fill-opacity="1"
      fill-rule="nonzero" />
    <path
      fill="#fee77e"
      d="M 215.535156 197.867188 L 311.257812 220.882812 L 306.507812 211.566406 L 189.410156 183.433594 L 217.542969 300.53125 L 243.300781 313.683594 Z M 215.535156 197.867188 "
      fill-opacity="1"
      fill-rule="nonzero" />
    <path
      fill="#ffd200"
      d="M 341.949219 467.316406 L 306.507812 536.554688 L 189.410156 564.6875 L 217.542969 447.589844 L 286.960938 412.332031 Z M 341.949219 467.316406 "
      fill-opacity="1"
      fill-rule="nonzero" />
    <path
      fill="#ffd200"
      d="M 467.996094 412.332031 L 537.230469 447.589844 L 565.363281 564.6875 L 448.265625 536.554688 L 413.007812 467.316406 Z M 467.996094 412.332031 "
      fill-opacity="1"
      fill-rule="nonzero" />
    <path
      fill="#ffd200"
      d="M 286.960938 335.789062 L 217.542969 300.53125 L 189.410156 183.433594 L 306.507812 211.566406 L 341.949219 280.804688 Z M 286.960938 335.789062 "
      fill-opacity="1"
      fill-rule="nonzero" />
    <path
      fill="#be9f39"
      d="M 413.738281 290.667969 L 335.917969 290.667969 C 331.71875 290.667969 328.0625 287.925781 326.785156 284.089844 L 302.855469 210.105469 C 301.941406 207.367188 302.308594 204.445312 303.769531 202.070312 L 366.609375 99.402344 C 368.4375 96.480469 371.359375 94.835938 374.828125 94.835938 C 378.300781 94.835938 381.222656 96.480469 383.050781 99.402344 L 445.890625 202.070312 C 447.351562 204.445312 447.71875 207.367188 446.804688 210.105469 L 422.691406 284.089844 C 421.59375 288.109375 417.757812 290.667969 413.738281 290.667969 Z M 342.859375 271.488281 L 406.617188 271.488281 L 427.074219 208.460938 L 374.648438 122.785156 L 322.21875 208.460938 Z M 342.859375 271.488281 "
      fill-opacity="1"
      fill-rule="nonzero" />
    <path
      fill="#be9f39"
      d="M 374.828125 653.285156 C 371.542969 653.285156 368.4375 651.640625 366.609375 648.71875 L 303.769531 546.050781 C 302.308594 543.675781 301.941406 540.753906 302.855469 538.015625 L 326.785156 464.03125 C 328.0625 460.011719 331.71875 457.453125 335.917969 457.453125 L 413.738281 457.453125 C 417.941406 457.453125 421.59375 460.195312 422.875 464.03125 L 446.988281 538.015625 C 447.902344 540.753906 447.535156 543.675781 446.074219 546.050781 L 383.234375 648.71875 C 381.222656 651.457031 378.117188 653.285156 374.828125 653.285156 Z M 322.402344 539.660156 L 374.828125 625.335938 L 427.257812 539.660156 L 406.796875 476.632812 L 343.042969 476.632812 Z M 322.402344 539.660156 "
      fill-opacity="1"
      fill-rule="nonzero" />
    <path
      fill="#be9f39"
      d="M 541.613281 446.492188 C 540.699219 446.492188 539.605469 446.308594 538.691406 445.945312 L 464.707031 422.015625 C 460.6875 420.734375 458.128906 417.082031 458.128906 412.878906 L 458.128906 335.058594 C 458.128906 330.855469 460.871094 327.203125 464.707031 325.925781 L 538.691406 301.8125 C 541.433594 300.898438 544.355469 301.261719 546.730469 302.722656 L 649.394531 365.566406 C 652.316406 367.394531 653.960938 370.316406 653.960938 373.785156 C 653.960938 377.074219 652.316406 380.179688 649.394531 382.007812 L 546.730469 444.847656 C 545.085938 446.128906 543.441406 446.492188 541.613281 446.492188 Z M 477.3125 405.9375 L 540.335938 426.398438 L 626.011719 373.96875 L 540.519531 321.722656 L 477.496094 342.183594 L 477.496094 405.9375 Z M 477.3125 405.9375 "
      fill-opacity="1"
      fill-rule="nonzero" />
    <path
      fill="#be9f39"
      d="M 207.863281 446.492188 C 206.035156 446.492188 204.390625 445.945312 202.929688 445.03125 L 100.265625 382.191406 C 97.34375 380.363281 95.699219 377.441406 95.699219 373.96875 C 95.699219 370.679688 97.34375 367.574219 100.265625 365.75 L 202.929688 302.90625 C 205.304688 301.445312 208.226562 301.082031 210.96875 301.992188 L 284.953125 326.109375 C 288.972656 327.386719 291.527344 331.039062 291.527344 335.242188 L 291.527344 412.878906 C 291.527344 417.082031 288.789062 420.734375 284.953125 422.015625 L 210.96875 446.128906 C 209.871094 446.308594 208.957031 446.492188 207.863281 446.492188 Z M 123.648438 374.152344 L 209.324219 426.582031 L 272.347656 406.121094 L 272.347656 342.367188 L 209.324219 321.90625 Z M 123.648438 374.152344 "
      fill-opacity="1"
      fill-rule="nonzero" />
    <path
      fill="#be9f39"
      d="M 467.996094 345.472656 C 465.4375 345.472656 463.0625 344.558594 461.234375 342.730469 L 406.25 287.746094 C 403.328125 284.820312 402.597656 280.253906 404.421875 276.601562 L 439.679688 207.367188 C 440.960938 204.808594 443.332031 202.980469 445.890625 202.433594 L 562.988281 174.300781 C 566.277344 173.570312 569.5625 174.484375 571.9375 176.859375 C 574.3125 179.234375 575.226562 182.703125 574.496094 185.808594 L 546.363281 302.90625 C 545.632812 305.648438 543.804688 308.023438 541.433594 309.117188 L 472.195312 344.375 C 470.917969 345.105469 469.457031 345.472656 467.996094 345.472656 Z M 424.699219 278.976562 L 469.820312 324.097656 L 529.007812 293.957031 L 552.390625 196.40625 L 454.84375 219.789062 Z M 424.699219 278.976562 "
      fill-opacity="1"
      fill-rule="nonzero" />
    <path
      fill="#be9f39"
      d="M 184.113281 574.367188 C 181.558594 574.367188 179.183594 573.453125 177.355469 571.628906 C 174.980469 569.253906 174.066406 565.78125 174.796875 562.675781 L 202.929688 445.578125 C 203.660156 442.839844 205.488281 440.464844 207.863281 439.367188 L 277.097656 404.109375 C 280.75 402.285156 285.316406 403.015625 288.242188 405.9375 L 343.226562 460.925781 C 346.148438 463.847656 346.878906 468.414062 345.054688 472.066406 L 309.796875 541.304688 C 308.519531 543.859375 306.144531 545.6875 303.585938 546.234375 L 186.488281 574.367188 C 185.574219 574.183594 184.84375 574.367188 184.113281 574.367188 Z M 220.648438 454.164062 L 197.085938 551.714844 L 294.632812 528.332031 L 324.777344 469.144531 L 279.65625 424.023438 Z M 220.648438 454.164062 "
      fill-opacity="1"
      fill-rule="nonzero" />
    <path
      fill="#be9f39"
      d="M 565.363281 574.367188 C 564.632812 574.367188 563.902344 574.367188 563.171875 574.183594 L 446.074219 546.050781 C 443.332031 545.320312 440.960938 543.496094 439.863281 541.121094 L 404.605469 471.886719 C 402.78125 468.230469 403.511719 463.664062 406.433594 460.742188 L 461.417969 405.753906 C 464.339844 402.832031 468.910156 402.101562 472.5625 403.929688 L 541.796875 439.183594 C 544.355469 440.464844 546.179688 442.839844 546.730469 445.398438 L 574.863281 562.492188 C 575.59375 565.78125 574.679688 569.070312 572.304688 571.445312 C 570.476562 573.273438 567.921875 574.367188 565.363281 574.367188 Z M 454.84375 528.332031 L 552.390625 551.714844 L 529.007812 454.164062 L 469.820312 424.023438 L 424.699219 469.144531 Z M 454.84375 528.332031 "
      fill-opacity="1"
      fill-rule="nonzero" />
    <path
      fill="#be9f39"
      d="M 281.664062 345.472656 C 280.203125 345.472656 278.742188 345.105469 277.28125 344.375 L 208.046875 309.117188 C 205.488281 307.839844 203.660156 305.464844 203.113281 302.90625 L 174.980469 185.808594 C 174.25 182.523438 175.164062 179.234375 177.539062 176.859375 C 179.914062 174.484375 183.382812 173.570312 186.488281 174.300781 L 303.585938 202.433594 C 306.324219 203.164062 308.699219 204.992188 309.796875 207.367188 L 345.054688 276.601562 C 346.878906 280.253906 346.148438 284.820312 343.226562 287.746094 L 288.421875 342.546875 C 286.597656 344.375 284.039062 345.472656 281.664062 345.472656 Z M 220.648438 293.957031 L 279.835938 324.097656 L 324.957031 278.976562 L 294.816406 219.789062 L 197.085938 196.40625 Z M 220.648438 293.957031 "
      fill-opacity="1"
      fill-rule="nonzero" />
    <path
      fill="#f26624"
      d="M 329.160156 484.308594 L 264.675781 419.640625 L 264.675781 328.480469 L 329.160156 263.8125 L 420.5 263.8125 L 484.984375 328.480469 L 484.984375 419.640625 L 420.5 484.308594 Z M 329.160156 484.308594 "
      fill-opacity="1"
      fill-rule="nonzero" />
    <path
      fill="#db5d27"
      d="M 326.785156 266.371094 L 333.179688 273.496094 L 345.234375 299.800781 L 405.519531 299.800781 L 416.480469 273.496094 C 416.480469 273.496094 417.210938 266.554688 416.480469 266.554688 C 416.113281 266.554688 399.308594 265.277344 382.867188 263.996094 L 329.160156 263.996094 Z M 326.785156 266.371094 "
      fill-opacity="1"
      fill-rule="nonzero" />
    <path
      fill="#db5d27"
      d="M 422.875 481.933594 L 416.480469 474.808594 L 405.519531 448.503906 L 344.140625 448.503906 L 333.179688 474.808594 C 333.179688 474.808594 332.449219 481.75 333.179688 481.75 C 333.542969 481.75 350.351562 483.027344 366.792969 484.308594 L 420.5 484.308594 Z M 422.875 481.933594 "
      fill-opacity="1"
      fill-rule="nonzero" />
    <path
      fill="#db5d27"
      d="M 482.609375 325.925781 L 475.484375 332.320312 L 449.179688 343.460938 L 449.179688 404.84375 L 475.484375 415.800781 C 475.484375 415.800781 482.425781 416.535156 482.425781 415.800781 C 482.425781 415.4375 483.707031 398.628906 484.984375 382.191406 L 484.984375 328.480469 Z M 482.609375 325.925781 "
      fill-opacity="1"
      fill-rule="nonzero" />
    <path
      fill="#db5d27"
      d="M 267.050781 422.195312 L 274.175781 415.800781 L 300.480469 404.84375 L 300.480469 343.460938 L 274.175781 332.5 C 274.175781 332.5 267.234375 331.769531 267.234375 332.5 C 267.234375 332.867188 265.953125 349.671875 264.675781 366.113281 L 264.675781 419.820312 Z M 267.050781 422.195312 "
      fill-opacity="1"
      fill-rule="nonzero" />
    <path
      fill="#b84f27"
      d="M 420.5 493.804688 L 329.160156 493.804688 C 326.601562 493.804688 324.226562 492.710938 322.402344 491.066406 L 257.917969 426.582031 C 256.089844 424.753906 255.175781 422.378906 255.175781 419.820312 L 255.175781 328.480469 C 255.175781 325.925781 256.273438 323.550781 257.917969 321.722656 L 322.402344 257.238281 C 324.226562 255.410156 326.601562 254.496094 329.160156 254.496094 L 420.5 254.496094 C 423.058594 254.496094 425.429688 255.59375 427.257812 257.238281 L 491.742188 321.722656 C 493.570312 323.550781 494.484375 325.925781 494.484375 328.480469 L 494.484375 419.820312 C 494.484375 422.378906 493.386719 424.753906 491.742188 426.582031 L 427.257812 491.066406 C 425.429688 492.894531 423.058594 493.804688 420.5 493.804688 Z M 333.179688 474.625 L 416.480469 474.625 L 475.484375 415.621094 L 475.484375 332.320312 L 416.480469 273.3125 L 333.179688 273.3125 L 274.175781 332.320312 L 274.175781 415.621094 Z M 333.179688 474.625 "
      fill-opacity="1"
      fill-rule="nonzero" />
    <path
      fill="#f29264"
      d="M 344.140625 448.320312 L 300.664062 404.84375 L 300.664062 343.277344 L 344.140625 299.800781 L 405.519531 299.800781 L 448.996094 343.277344 L 448.996094 404.84375 L 405.519531 448.320312 Z M 344.140625 448.320312 "
      fill-opacity="1"
      fill-rule="nonzero" />
    <path
      fill="#f9ad88"
      d="M 405.519531 299.800781 L 365.695312 299.800781 L 305.777344 410.140625 L 344.140625 448.320312 L 345.601562 448.320312 L 418.855469 313.136719 Z M 405.519531 299.800781 "
      fill-opacity="1"
      fill-rule="nonzero" />
    <path
      fill="#f9ad88"
      d="M 381.222656 448.320312 L 442.054688 336.335938 L 422.324219 316.609375 L 350.898438 448.320312 Z M 381.222656 448.320312 "
      fill-opacity="1"
      fill-rule="nonzero" />
  </symbol>

  <symbol id="icon-rainbow-badge" viewBox="0 0 750 734.999996">
    <path
      fill="#ffffff"
      d="M 461.019531 521.234375 L 290.792969 521.234375 C 257.0625 521.234375 229.808594 493.980469 229.808594 460.246094 L 229.808594 290.015625 C 229.808594 256.28125 257.0625 229.023438 290.792969 229.023438 L 461.019531 229.023438 C 494.75 229.023438 522.003906 256.28125 522.003906 290.015625 L 522.003906 460.246094 C 522.003906 493.980469 494.75 521.234375 461.019531 521.234375 Z M 461.019531 521.234375 "
      fill-opacity="1"
      fill-rule="nonzero" />
    <path
      fill="#6b3314"
      d="M 461.019531 532.851562 L 290.792969 532.851562 C 250.804688 532.851562 218.191406 500.234375 218.191406 460.246094 L 218.191406 290.011719 C 218.191406 250.023438 250.804688 217.410156 290.792969 217.410156 L 461.019531 217.410156 C 501.007812 217.410156 533.621094 250.023438 533.621094 290.011719 L 533.621094 460.246094 C 533.621094 500.234375 501.007812 532.851562 461.019531 532.851562 Z M 290.570312 240.640625 C 263.539062 240.640625 241.425781 262.757812 241.425781 289.789062 L 241.425781 460.023438 C 241.425781 487.054688 263.539062 509.171875 290.570312 509.171875 L 460.796875 509.171875 C 487.824219 509.171875 509.941406 487.054688 509.941406 460.023438 L 509.941406 289.789062 C 509.941406 262.757812 487.824219 240.640625 460.796875 240.640625 Z M 290.570312 240.640625 "
      fill-opacity="1"
      fill-rule="nonzero" />
    <path
      fill="#f26922"
      d="M 488.050781 169.824219 L 561.324219 189.484375 L 580.980469 262.980469 L 527.367188 316.597656 L 453.871094 296.9375 L 434.210938 223.664062 Z M 488.050781 169.824219 "
      fill-opacity="1"
      fill-rule="nonzero" />
    <path
      fill="#6b3314"
      d="M 527.367188 328.4375 C 526.25 328.4375 525.355469 328.214844 524.238281 327.992188 L 450.742188 308.332031 C 446.722656 307.214844 443.59375 304.089844 442.476562 300.066406 L 422.820312 226.566406 C 421.703125 222.546875 422.820312 218.300781 425.945312 215.175781 L 479.785156 161.335938 C 482.6875 158.429688 487.15625 157.3125 491.175781 158.207031 L 564.671875 177.867188 C 568.695312 178.984375 571.820312 182.109375 572.9375 186.132812 L 592.597656 259.632812 C 593.714844 263.652344 592.597656 267.898438 589.46875 271.023438 L 535.632812 324.863281 C 533.398438 327.097656 530.496094 328.4375 527.367188 328.4375 Z M 463.476562 287.332031 L 523.792969 303.417969 L 568.023438 259.183594 L 551.941406 198.867188 L 491.625 182.78125 L 447.390625 227.015625 Z M 463.476562 287.332031 "
      fill-opacity="1"
      fill-rule="nonzero" />
    <path
      fill="#78cad2"
      d="M 224.222656 433.4375 L 297.71875 453.320312 L 317.378906 526.59375 L 263.761719 580.433594 L 190.265625 560.777344 L 170.609375 487.277344 Z M 224.222656 433.4375 "
      fill-opacity="1"
      fill-rule="nonzero" />
    <path
      fill="#6b3314"
      d="M 263.761719 592.050781 C 262.644531 592.050781 261.753906 591.828125 260.636719 591.605469 L 187.140625 571.945312 C 183.117188 570.828125 179.992188 567.703125 178.875 563.679688 L 159.214844 490.179688 C 158.097656 486.160156 159.214844 481.914062 162.34375 478.789062 L 216.179688 424.949219 C 219.085938 422.042969 223.550781 420.925781 227.574219 421.820312 L 301.070312 441.480469 C 305.089844 442.597656 308.21875 445.722656 309.335938 449.746094 L 328.992188 523.246094 C 330.109375 527.265625 328.992188 531.511719 325.867188 534.636719 L 272.027344 588.476562 C 269.796875 590.933594 266.667969 592.050781 263.761719 592.050781 Z M 199.871094 551.167969 L 260.1875 567.253906 L 304.421875 523.019531 L 288.335938 462.703125 L 228.019531 446.617188 L 183.789062 490.851562 Z M 199.871094 551.167969 "
      fill-opacity="1"
      fill-rule="nonzero" />
    <path
      fill="#9fcc3b"
      d="M 580.980469 487.277344 L 561.324219 560.777344 L 488.050781 580.433594 L 434.210938 526.59375 L 453.871094 453.320312 L 527.367188 433.4375 Z M 580.980469 487.277344 "
      fill-opacity="1"
      fill-rule="nonzero" />
    <path
      fill="#6b3314"
      d="M 488.050781 592.050781 C 484.921875 592.050781 482.019531 590.933594 479.785156 588.703125 L 425.945312 534.863281 C 423.042969 531.957031 421.925781 527.488281 422.820312 523.46875 L 442.476562 449.96875 C 443.59375 445.949219 446.722656 442.820312 450.742188 441.703125 L 524.238281 422.042969 C 528.261719 420.925781 532.503906 422.042969 535.632812 425.171875 L 589.46875 479.011719 C 592.375 481.914062 593.492188 486.382812 592.597656 490.40625 L 572.9375 563.902344 C 571.820312 567.925781 568.695312 571.050781 564.671875 572.167969 L 491.175781 591.828125 C 490.058594 591.828125 488.941406 592.050781 488.050781 592.050781 Z M 447.390625 523.019531 L 491.625 567.253906 L 551.941406 551.167969 L 568.023438 490.851562 L 523.792969 446.617188 L 463.476562 462.703125 Z M 447.390625 523.019531 "
      fill-opacity="1"
      fill-rule="nonzero" />
    <path
      fill="#c55ba2"
      d="M 317.378906 223.664062 L 297.71875 296.9375 L 224.222656 316.597656 L 170.609375 262.980469 L 190.265625 189.484375 L 263.761719 169.824219 Z M 317.378906 223.664062 "
      fill-opacity="1"
      fill-rule="nonzero" />
    <path
      fill="#6b3314"
      d="M 224.222656 328.4375 C 221.09375 328.4375 218.191406 327.320312 215.957031 325.085938 L 162.121094 271.246094 C 159.214844 268.34375 158.097656 263.875 158.992188 259.855469 L 178.652344 186.355469 C 179.769531 182.335938 182.894531 179.207031 186.917969 178.089844 L 260.414062 158.429688 C 264.433594 157.3125 268.679688 158.429688 271.804688 161.558594 L 325.644531 215.398438 C 328.546875 218.300781 329.664062 222.769531 328.769531 226.792969 L 309.113281 300.289062 C 307.996094 304.3125 304.867188 307.4375 300.847656 308.554688 L 227.351562 328.214844 C 226.457031 328.214844 225.339844 328.4375 224.222656 328.4375 Z M 183.789062 259.40625 L 228.019531 303.640625 L 288.335938 287.554688 L 304.421875 227.238281 L 260.1875 183.003906 L 199.871094 199.089844 Z M 183.789062 259.40625 "
      fill-opacity="1"
      fill-rule="nonzero" />
    <path
      fill="#ee223d"
      d="M 333.460938 108.164062 L 280.519531 174.292969 L 299.507812 256.949219 L 375.90625 293.8125 L 452.308594 256.949219 L 471.070312 174.292969 L 418.128906 108.164062 Z M 333.460938 108.164062 "
      fill-opacity="1"
      fill-rule="nonzero" />
    <path
      fill="#6b3314"
      d="M 375.90625 305.429688 C 374.121094 305.429688 372.332031 304.980469 370.769531 304.3125 L 294.367188 267.449219 C 291.242188 265.886719 288.785156 262.980469 288.113281 259.40625 L 269.347656 176.75 C 268.453125 173.175781 269.347656 169.601562 271.582031 166.917969 L 324.527344 100.570312 C 326.761719 97.886719 330.109375 96.101562 333.683594 96.101562 L 418.351562 96.101562 C 421.925781 96.101562 425.277344 97.664062 427.511719 100.570312 L 480.453125 166.917969 C 482.6875 169.601562 483.582031 173.398438 482.6875 176.75 L 463.921875 259.40625 C 463.027344 262.980469 460.796875 265.886719 457.667969 267.449219 L 381.265625 304.3125 C 379.257812 304.980469 377.46875 305.429688 375.90625 305.429688 Z M 309.558594 248.90625 L 375.683594 280.855469 L 441.808594 248.90625 L 458.113281 177.195312 L 412.320312 119.78125 L 338.824219 119.78125 L 293.027344 177.195312 Z M 309.558594 248.90625 "
      fill-opacity="1"
      fill-rule="nonzero" />
    <path
      fill="#60bb46"
      d="M 333.460938 642.09375 L 280.519531 575.96875 L 299.507812 493.308594 L 375.90625 456.449219 L 452.308594 493.308594 L 471.070312 575.96875 L 418.128906 642.09375 Z M 333.460938 642.09375 "
      fill-opacity="1"
      fill-rule="nonzero" />
    <path
      fill="#6b3314"
      d="M 418.128906 653.933594 L 333.460938 653.933594 C 329.886719 653.933594 326.535156 652.371094 324.304688 649.464844 L 271.359375 583.117188 C 269.125 580.433594 268.230469 576.636719 269.125 573.285156 L 287.890625 490.628906 C 288.785156 487.054688 291.019531 484.148438 294.144531 482.585938 L 370.546875 445.722656 C 373.671875 444.160156 377.46875 444.160156 380.820312 445.722656 L 457.222656 482.585938 C 460.347656 484.148438 462.804688 487.054688 463.476562 490.628906 L 482.242188 573.285156 C 483.136719 576.859375 482.242188 580.433594 480.007812 583.117188 L 427.0625 649.464844 C 425.054688 652.148438 421.703125 653.933594 418.128906 653.933594 Z M 339.046875 630.476562 L 412.542969 630.476562 L 458.339844 573.0625 L 442.03125 501.351562 L 375.90625 469.40625 L 309.78125 501.351562 L 293.472656 573.0625 Z M 339.046875 630.476562 "
      fill-opacity="1"
      fill-rule="nonzero" />
    <path
      fill="#f6ec3c"
      d="M 642.859375 332.683594 L 576.511719 279.960938 L 494.082031 298.726562 L 457.222656 375.128906 L 494.082031 451.53125 L 576.511719 470.296875 L 642.859375 417.574219 Z M 642.859375 332.683594 "
      fill-opacity="1"
      fill-rule="nonzero" />
    <path
      fill="#6b3314"
      d="M 576.511719 482.140625 C 575.621094 482.140625 574.726562 482.140625 573.832031 481.914062 L 491.175781 463.148438 C 487.601562 462.257812 484.699219 460.023438 483.136719 456.894531 L 446.273438 380.492188 C 444.710938 377.363281 444.710938 373.566406 446.273438 370.214844 L 483.136719 293.8125 C 484.699219 290.683594 487.601562 288.226562 491.175781 287.554688 L 573.832031 268.789062 C 577.40625 267.898438 580.980469 268.789062 583.660156 271.023438 L 650.007812 323.972656 C 652.691406 326.203125 654.476562 329.554688 654.476562 333.128906 L 654.476562 417.800781 C 654.476562 421.375 652.914062 424.726562 650.007812 426.957031 L 583.660156 479.90625 C 581.875 481.246094 579.195312 482.140625 576.511719 482.140625 Z M 502.125 441.257812 L 573.832031 457.566406 L 631.246094 411.765625 L 631.246094 338.269531 L 573.832031 292.472656 L 502.125 308.78125 L 470.179688 374.90625 Z M 502.125 441.257812 "
      fill-opacity="1"
      fill-rule="nonzero" />
    <path
      fill="#4471b8"
      d="M 108.730469 332.683594 L 175.078125 279.960938 L 257.730469 298.726562 L 294.367188 375.128906 L 257.730469 451.53125 L 175.078125 470.296875 L 108.730469 417.574219 Z M 108.730469 332.683594 "
      fill-opacity="1"
      fill-rule="nonzero" />
    <path
      fill="#6b3314"
      d="M 175.078125 482.140625 C 172.394531 482.140625 169.9375 481.246094 167.703125 479.679688 L 101.355469 426.734375 C 98.675781 424.5 96.890625 421.148438 96.890625 417.574219 L 96.890625 332.90625 C 96.890625 329.332031 98.453125 325.980469 101.355469 323.746094 L 167.703125 270.800781 C 170.386719 268.566406 174.183594 267.671875 177.535156 268.566406 L 260.1875 287.332031 C 263.761719 288.226562 266.667969 290.460938 268.230469 293.589844 L 305.089844 369.992188 C 306.65625 373.117188 306.65625 376.917969 305.089844 380.269531 L 268.230469 456.671875 C 266.667969 459.796875 263.761719 462.257812 260.1875 462.925781 L 177.535156 481.691406 C 176.863281 481.914062 175.96875 482.140625 175.078125 482.140625 Z M 120.570312 411.765625 L 177.980469 457.566406 L 249.6875 441.257812 L 281.632812 375.128906 L 249.6875 309.003906 L 177.980469 292.695312 L 120.570312 338.492188 Z M 120.570312 411.765625 "
      fill-opacity="1"
      fill-rule="nonzero" />
    <path
      fill="#ffffff"
      d="M 407.179688 428.96875 L 344.410156 428.96875 C 331.898438 428.96875 321.84375 418.917969 321.84375 406.40625 L 321.84375 343.628906 C 321.84375 331.121094 331.898438 321.066406 344.410156 321.066406 L 407.179688 321.066406 C 419.691406 321.066406 429.746094 331.121094 429.746094 343.628906 L 429.746094 406.40625 C 429.746094 418.917969 419.691406 428.96875 407.179688 428.96875 Z M 407.179688 428.96875 "
      fill-opacity="1"
      fill-rule="nonzero" />
    <path
      fill="#6b3314"
      d="M 407.179688 440.585938 L 344.410156 440.585938 C 325.644531 440.585938 310.230469 425.171875 310.230469 406.40625 L 310.230469 343.628906 C 310.230469 324.863281 325.644531 309.449219 344.410156 309.449219 L 407.179688 309.449219 C 425.945312 309.449219 441.359375 324.863281 441.359375 343.628906 L 441.359375 406.40625 C 441.359375 425.394531 425.945312 440.585938 407.179688 440.585938 Z M 344.410156 332.90625 C 338.601562 332.90625 333.683594 337.820312 333.683594 343.628906 L 333.683594 406.40625 C 333.683594 412.214844 338.601562 417.128906 344.410156 417.128906 L 407.179688 417.128906 C 412.988281 417.128906 417.90625 412.214844 417.90625 406.40625 L 417.90625 343.628906 C 417.90625 337.820312 412.988281 332.90625 407.179688 332.90625 Z M 344.410156 332.90625 "
      fill-opacity="1"
      fill-rule="nonzero" />
  </symbol>

  <symbol id="icon-soul-badge" viewBox="0 0 750 734.999996">
    <path
      fill="#ca76b0"
      d="M 537.371094 161.140625 C 522.949219 145.191406 507.214844 132.738281 489.296875 123.996094 C 459.359375 109.359375 422.867188 116.566406 401.671875 142.132812 C 394.898438 150.214844 387.6875 157.207031 378.070312 159.175781 C 368.457031 157.207031 361.246094 150.433594 354.472656 142.132812 C 333.058594 116.566406 296.785156 109.359375 266.847656 123.996094 C 249.148438 132.738281 233.195312 145.191406 218.773438 161.140625 C 173.320312 211.394531 146.445312 262.523438 167.203125 330.910156 C 189.492188 404.105469 237.566406 458.074219 281.488281 519.253906 C 308.800781 557.273438 353.378906 591.792969 377.851562 630.6875 C 402.546875 592.011719 446.90625 557.273438 474.21875 519.253906 C 518.140625 458.074219 566.433594 404.324219 588.503906 330.910156 C 609.699219 262.304688 582.824219 211.175781 537.371094 161.140625 Z M 537.371094 161.140625 "
      fill-opacity="1"
      fill-rule="nonzero" />
    <path
      fill="#643457"
      d="M 378.070312 642.046875 C 374.136719 642.046875 370.421875 640.082031 368.457031 636.804688 C 355.78125 616.921875 336.992188 597.257812 318.636719 578.464844 C 302.464844 561.640625 285.640625 544.164062 272.527344 526.027344 C 264.222656 514.445312 255.484375 502.867188 247.179688 491.722656 C 210.03125 442.34375 175.070312 395.585938 156.496094 334.40625 C 132.238281 254.21875 170.261719 197.847656 210.46875 153.492188 C 226.421875 136.015625 243.246094 123.121094 261.820312 113.945312 C 296.785156 96.683594 338.519531 105.425781 363.210938 135.140625 C 368.894531 142.132812 373.484375 145.847656 378.070312 147.59375 C 382.660156 145.847656 387.25 142.132812 392.929688 135.140625 C 417.625 105.425781 459.359375 96.902344 494.324219 113.945312 C 513.117188 123.121094 529.941406 136.015625 545.675781 153.492188 C 586.101562 197.847656 623.902344 254.21875 599.648438 334.40625 C 581.074219 395.585938 546.113281 442.34375 508.964844 491.722656 C 500.660156 502.867188 491.917969 514.445312 483.617188 526.027344 C 470.503906 544.164062 453.679688 561.640625 437.507812 578.464844 C 419.152344 597.476562 400.359375 616.921875 387.6875 636.804688 C 385.71875 640.082031 382.003906 642.046875 378.070312 642.046875 Z M 299.1875 127.929688 C 290.007812 127.929688 280.613281 130.113281 271.871094 134.265625 C 255.703125 142.132812 241.28125 153.492188 227.296875 168.789062 C 175.507812 225.816406 161.304688 271.917969 178.347656 327.632812 C 195.609375 384.878906 229.480469 430.109375 265.316406 477.957031 C 273.839844 489.101562 282.363281 500.898438 290.882812 512.699219 C 303.121094 529.523438 319.289062 546.347656 335.023438 562.515625 C 350.101562 578.027344 365.398438 593.980469 378.070312 610.585938 C 390.746094 593.980469 406.042969 578.027344 421.121094 562.515625 C 436.851562 546.347656 453.023438 529.523438 465.261719 512.699219 C 473.78125 500.898438 482.523438 489.320312 490.828125 477.957031 C 526.664062 430.109375 560.535156 385.097656 577.796875 327.632812 C 594.621094 271.917969 580.417969 225.816406 528.847656 168.789062 C 514.863281 153.492188 500.441406 142.132812 484.269531 134.265625 C 458.703125 121.8125 428.332031 127.929688 410.414062 149.5625 C 403.203125 158.300781 393.804688 167.695312 380.257812 170.316406 C 378.726562 170.535156 377.199219 170.535156 375.667969 170.316406 C 362.121094 167.476562 352.722656 158.300781 345.511719 149.5625 C 333.929688 135.578125 316.886719 127.929688 299.1875 127.929688 Z M 299.1875 127.929688 "
      fill-opacity="1"
      fill-rule="nonzero" />
    <path
      fill="#643457"
      d="M 382.878906 620.636719 L 527.539062 442.34375 L 399.488281 540.886719 L 378.289062 221.664062 L 378.070312 230.402344 L 378.070312 221.664062 L 356.65625 540.886719 L 228.605469 442.34375 L 373.484375 620.636719 L 373.265625 632.214844 L 378.070312 626.316406 L 382.878906 632.214844 Z M 382.878906 620.636719 "
      fill-opacity="1"
      fill-rule="nonzero" />
    <path
      fill="#e5a5ca"
      d="M 271.234375 221.609375 C 270.066406 223.101562 268.871094 224.570312 267.652344 226.011719 C 266.433594 227.457031 265.199219 228.867188 263.945312 230.246094 C 262.691406 231.628906 261.425781 232.96875 260.144531 234.273438 C 258.867188 235.578125 257.582031 236.835938 256.292969 238.050781 C 255.003906 239.265625 253.714844 240.429688 252.425781 241.546875 C 251.132812 242.660156 249.851562 243.71875 248.574219 244.722656 C 247.296875 245.726562 246.035156 246.667969 244.785156 247.550781 C 243.53125 248.429688 242.300781 249.25 241.085938 250 C 239.871094 250.753906 238.683594 251.4375 237.519531 252.054688 C 236.355469 252.667969 235.21875 253.214844 234.113281 253.6875 C 233.011719 254.160156 231.941406 254.558594 230.910156 254.882812 C 229.875 255.210938 228.882812 255.460938 227.929688 255.636719 C 226.976562 255.8125 226.070312 255.910156 225.207031 255.933594 C 224.34375 255.957031 223.53125 255.90625 222.765625 255.777344 C 222.003906 255.648438 221.292969 255.441406 220.632812 255.164062 C 219.976562 254.882812 219.371094 254.527344 218.824219 254.101562 C 218.28125 253.671875 217.792969 253.171875 217.363281 252.601562 C 216.933594 252.027344 216.566406 251.386719 216.257812 250.675781 C 215.949219 249.964844 215.707031 249.1875 215.523438 248.34375 C 215.339844 247.5 215.21875 246.59375 215.160156 245.628906 C 215.105469 244.660156 215.113281 243.636719 215.179688 242.554688 C 215.25 241.476562 215.382812 240.339844 215.578125 239.15625 C 215.777344 237.972656 216.035156 236.738281 216.351562 235.460938 C 216.671875 234.183594 217.054688 232.867188 217.496094 231.507812 C 217.9375 230.148438 218.4375 228.757812 218.992188 227.332031 C 219.550781 225.90625 220.164062 224.453125 220.835938 222.976562 C 221.503906 221.496094 222.226562 220 223 218.480469 C 223.773438 216.960938 224.597656 215.433594 225.46875 213.890625 C 226.34375 212.347656 227.257812 210.800781 228.21875 209.246094 C 229.179688 207.695312 230.183594 206.144531 231.222656 204.597656 C 232.265625 203.050781 233.339844 201.511719 234.453125 199.984375 C 235.5625 198.457031 236.703125 196.949219 237.875 195.457031 C 239.042969 193.964844 240.238281 192.496094 241.457031 191.050781 C 242.671875 189.609375 243.910156 188.199219 245.164062 186.816406 C 246.417969 185.4375 247.683594 184.09375 248.964844 182.792969 C 250.242188 181.488281 251.527344 180.226562 252.816406 179.011719 C 254.105469 177.796875 255.394531 176.632812 256.683594 175.519531 C 257.976562 174.40625 259.257812 173.347656 260.535156 172.34375 C 261.8125 171.339844 263.074219 170.398438 264.324219 169.515625 C 265.578125 168.632812 266.808594 167.816406 268.023438 167.066406 C 269.238281 166.3125 270.425781 165.628906 271.589844 165.011719 C 272.753906 164.398438 273.890625 163.851562 274.996094 163.378906 C 276.097656 162.90625 277.167969 162.507812 278.199219 162.179688 C 279.234375 161.855469 280.226562 161.605469 281.179688 161.429688 C 282.132812 161.253906 283.039062 161.152344 283.902344 161.128906 C 284.765625 161.105469 285.578125 161.160156 286.34375 161.289062 C 287.105469 161.417969 287.816406 161.621094 288.476562 161.902344 C 289.132812 162.183594 289.738281 162.535156 290.285156 162.964844 C 290.828125 163.394531 291.316406 163.894531 291.746094 164.464844 C 292.175781 165.039062 292.542969 165.679688 292.851562 166.390625 C 293.160156 167.101562 293.402344 167.878906 293.585938 168.722656 C 293.769531 169.566406 293.890625 170.46875 293.945312 171.4375 C 294.003906 172.402344 293.996094 173.429688 293.929688 174.507812 C 293.859375 175.589844 293.726562 176.722656 293.53125 177.910156 C 293.332031 179.09375 293.074219 180.324219 292.753906 181.605469 C 292.4375 182.882812 292.054688 184.199219 291.613281 185.558594 C 291.171875 186.914062 290.671875 188.308594 290.117188 189.734375 C 289.558594 191.160156 288.945312 192.609375 288.273438 194.089844 C 287.605469 195.566406 286.882812 197.066406 286.109375 198.585938 C 285.335938 200.101562 284.511719 201.632812 283.640625 203.175781 C 282.765625 204.71875 281.851562 206.265625 280.890625 207.820312 C 279.929688 209.371094 278.925781 210.921875 277.886719 212.46875 C 276.84375 214.015625 275.769531 215.554688 274.65625 217.078125 C 273.546875 218.605469 272.40625 220.117188 271.234375 221.609375 Z M 271.234375 221.609375 "
      fill-opacity="1"
      fill-rule="nonzero" />
  </symbol>

  <symbol id="icon-marsh-badge" viewBox="0 0 750 734.999996">
    <path
      fill="#ffd146"
      d="M 630.035156 373.9375 C 630.035156 378.148438 629.933594 382.355469 629.726562 386.558594 C 629.519531 390.765625 629.210938 394.960938 628.796875 399.152344 C 628.386719 403.34375 627.871094 407.519531 627.253906 411.683594 C 626.632812 415.847656 625.914062 419.996094 625.09375 424.125 C 624.273438 428.253906 623.351562 432.359375 622.328125 436.445312 C 621.304688 440.53125 620.179688 444.585938 618.960938 448.613281 C 617.738281 452.644531 616.417969 456.640625 615 460.605469 C 613.582031 464.570312 612.066406 468.496094 610.453125 472.386719 C 608.84375 476.273438 607.136719 480.125 605.335938 483.929688 C 603.539062 487.734375 601.644531 491.496094 599.660156 495.207031 C 597.675781 498.921875 595.601562 502.582031 593.4375 506.195312 C 591.273438 509.804688 589.019531 513.363281 586.683594 516.863281 C 584.34375 520.363281 581.917969 523.804688 579.410156 527.1875 C 576.902344 530.566406 574.3125 533.886719 571.644531 537.140625 C 568.972656 540.394531 566.222656 543.582031 563.394531 546.703125 C 560.570312 549.820312 557.667969 552.871094 554.691406 555.847656 C 551.714844 558.824219 548.664062 561.726562 545.546875 564.554688 C 542.425781 567.378906 539.238281 570.128906 535.984375 572.800781 C 532.730469 575.472656 529.414062 578.0625 526.03125 580.570312 C 522.648438 583.078125 519.207031 585.5 515.707031 587.839844 C 512.207031 590.179688 508.652344 592.429688 505.039062 594.59375 C 501.429688 596.761719 497.765625 598.835938 494.054688 600.820312 C 490.339844 602.804688 486.582031 604.695312 482.777344 606.496094 C 478.96875 608.296875 475.121094 610.003906 471.234375 611.613281 C 467.34375 613.226562 463.417969 614.738281 459.453125 616.15625 C 455.488281 617.578125 451.492188 618.898438 447.464844 620.117188 C 443.433594 621.339844 439.378906 622.464844 435.292969 623.488281 C 431.210938 624.507812 427.105469 625.433594 422.976562 626.253906 C 418.84375 627.074219 414.699219 627.792969 410.535156 628.410156 C 406.371094 629.03125 402.191406 629.546875 398.003906 629.957031 C 393.8125 630.371094 389.617188 630.679688 385.410156 630.886719 C 381.207031 631.09375 377 631.195312 372.789062 631.195312 C 368.578125 631.195312 364.371094 631.09375 360.164062 630.886719 C 355.960938 630.679688 351.761719 630.371094 347.574219 629.957031 C 343.382812 629.546875 339.207031 629.03125 335.042969 628.410156 C 330.878906 627.792969 326.730469 627.074219 322.601562 626.253906 C 318.472656 625.433594 314.367188 624.507812 310.28125 623.488281 C 306.199219 622.464844 302.140625 621.339844 298.113281 620.117188 C 294.082031 618.898438 290.085938 617.578125 286.125 616.15625 C 282.160156 614.738281 278.234375 613.226562 274.34375 611.613281 C 270.453125 610.003906 266.605469 608.296875 262.800781 606.496094 C 258.992188 604.695312 255.234375 602.804688 251.523438 600.820312 C 247.808594 598.835938 244.148438 596.761719 240.535156 594.59375 C 236.925781 592.429688 233.367188 590.179688 229.867188 587.839844 C 226.367188 585.5 222.925781 583.078125 219.546875 580.570312 C 216.164062 578.0625 212.84375 575.472656 209.589844 572.800781 C 206.335938 570.128906 203.148438 567.378906 200.03125 564.554688 C 196.910156 561.726562 193.863281 558.824219 190.886719 555.847656 C 187.910156 552.871094 185.007812 549.820312 182.179688 546.703125 C 179.351562 543.582031 176.601562 540.394531 173.933594 537.140625 C 171.261719 533.886719 168.671875 530.566406 166.164062 527.1875 C 163.65625 523.804688 161.230469 520.363281 158.894531 516.863281 C 156.554688 513.363281 154.300781 509.804688 152.136719 506.195312 C 149.972656 502.582031 147.898438 498.921875 145.914062 495.207031 C 143.929688 491.496094 142.039062 487.734375 140.238281 483.929688 C 138.4375 480.121094 136.730469 476.273438 135.121094 472.386719 C 133.511719 468.496094 131.996094 464.570312 130.578125 460.605469 C 129.160156 456.640625 127.839844 452.644531 126.617188 448.613281 C 125.394531 444.585938 124.273438 440.53125 123.25 436.445312 C 122.226562 432.359375 121.304688 428.253906 120.480469 424.125 C 119.660156 419.996094 118.941406 415.847656 118.324219 411.683594 C 117.707031 407.519531 117.191406 403.34375 116.777344 399.152344 C 116.363281 394.960938 116.054688 390.765625 115.847656 386.558594 C 115.644531 382.355469 115.539062 378.148438 115.539062 373.9375 C 115.539062 369.726562 115.640625 365.519531 115.847656 361.3125 C 116.054688 357.109375 116.363281 352.910156 116.777344 348.71875 C 117.191406 344.53125 117.707031 340.351562 118.324219 336.1875 C 118.941406 332.023438 119.660156 327.875 120.480469 323.746094 C 121.304688 319.617188 122.226562 315.511719 123.25 311.425781 C 124.273438 307.34375 125.394531 303.285156 126.617188 299.257812 C 127.839844 295.230469 129.160156 291.230469 130.578125 287.269531 C 131.996094 283.304688 133.511719 279.378906 135.121094 275.488281 C 136.730469 271.597656 138.4375 267.75 140.238281 263.945312 C 142.039062 260.136719 143.929688 256.378906 145.914062 252.664062 C 147.898438 248.953125 149.972656 245.289062 152.136719 241.679688 C 154.300781 238.066406 156.554688 234.511719 158.894531 231.011719 C 161.230469 227.507812 163.65625 224.070312 166.164062 220.6875 C 168.671875 217.304688 171.261719 213.988281 173.933594 210.734375 C 176.601562 207.476562 179.351562 204.289062 182.179688 201.171875 C 185.007812 198.050781 187.910156 195.003906 190.886719 192.027344 C 193.863281 189.050781 196.910156 186.148438 200.03125 183.320312 C 203.148438 180.492188 206.335938 177.742188 209.589844 175.070312 C 212.84375 172.402344 216.164062 169.8125 219.546875 167.304688 C 222.925781 164.796875 226.367188 162.371094 229.867188 160.03125 C 233.367188 157.695312 236.925781 155.441406 240.535156 153.277344 C 244.148438 151.113281 247.808594 149.039062 251.523438 147.054688 C 255.234375 145.070312 258.992188 143.175781 262.800781 141.375 C 266.605469 139.574219 270.453125 137.871094 274.34375 136.257812 C 278.234375 134.648438 282.160156 133.132812 286.125 131.714844 C 290.085938 130.296875 294.082031 128.976562 298.113281 127.753906 C 302.140625 126.53125 306.199219 125.410156 310.28125 124.386719 C 314.367188 123.363281 318.472656 122.441406 322.601562 121.621094 C 326.730469 120.796875 330.878906 120.078125 335.042969 119.460938 C 339.207031 118.84375 343.382812 118.328125 347.574219 117.914062 C 351.761719 117.503906 355.960938 117.191406 360.164062 116.988281 C 364.371094 116.78125 368.578125 116.675781 372.789062 116.675781 C 377 116.675781 381.207031 116.78125 385.410156 116.988281 C 389.617188 117.191406 393.8125 117.503906 398.003906 117.914062 C 402.191406 118.328125 406.371094 118.84375 410.535156 119.460938 C 414.699219 120.078125 418.84375 120.796875 422.972656 121.621094 C 427.105469 122.441406 431.210938 123.363281 435.292969 124.386719 C 439.378906 125.410156 443.433594 126.53125 447.464844 127.753906 C 451.492188 128.976562 455.488281 130.296875 459.453125 131.714844 C 463.417969 133.132812 467.34375 134.648438 471.234375 136.257812 C 475.121094 137.871094 478.96875 139.574219 482.777344 141.375 C 486.582031 143.175781 490.339844 145.070312 494.054688 147.054688 C 497.765625 149.039062 501.429688 151.113281 505.039062 153.277344 C 508.652344 155.441406 512.207031 157.695312 515.707031 160.03125 C 519.207031 162.371094 522.648438 164.796875 526.03125 167.304688 C 529.414062 169.8125 532.730469 172.402344 535.984375 175.070312 C 539.238281 177.742188 542.425781 180.492188 545.546875 183.320312 C 548.664062 186.148438 551.714844 189.050781 554.691406 192.027344 C 557.667969 195.003906 560.570312 198.050781 563.394531 201.171875 C 566.222656 204.289062 568.972656 207.476562 571.644531 210.734375 C 574.3125 213.988281 576.902344 217.304688 579.410156 220.6875 C 581.917969 224.070312 584.34375 227.507812 586.683594 231.011719 C 589.019531 234.511719 591.273438 238.066406 593.4375 241.679688 C 595.601562 245.289062 597.675781 248.953125 599.660156 252.664062 C 601.644531 256.378906 603.539062 260.136719 605.335938 263.945312 C 607.136719 267.75 608.84375 271.597656 610.453125 275.488281 C 612.066406 279.378906 613.582031 283.304688 615 287.269531 C 616.417969 291.230469 617.738281 295.230469 618.960938 299.257812 C 620.179688 303.285156 621.304688 307.34375 622.328125 311.425781 C 623.351562 315.511719 624.273438 319.617188 625.09375 323.746094 C 625.914062 327.875 626.632812 332.023438 627.253906 336.1875 C 627.871094 340.351562 628.386719 344.53125 628.796875 348.71875 C 629.210938 352.910156 629.519531 357.109375 629.726562 361.3125 C 629.933594 365.519531 630.035156 369.726562 630.035156 373.9375 Z M 630.035156 373.9375 "
      fill-opacity="1"
      fill-rule="nonzero" />
    <path
      fill="#fee69b"
      d="M 150.222656 404.769531 C 150.222656 262.746094 265.457031 147.507812 407.472656 147.507812 C 464.703125 147.507812 517.503906 166.203125 560.28125 197.804688 C 513.457031 147.894531 446.78125 116.675781 372.789062 116.675781 C 230.769531 116.675781 115.539062 231.914062 115.539062 373.9375 C 115.539062 458.726562 156.582031 534.074219 219.980469 580.902344 C 176.816406 534.84375 150.222656 472.792969 150.222656 404.769531 Z M 150.222656 404.769531 "
      fill-opacity="1"
      fill-rule="nonzero" />
    <path
      fill="#f48240"
      d="M 372.789062 641.21875 C 225.375 641.21875 105.519531 521.355469 105.519531 373.9375 C 105.519531 226.519531 225.375 106.65625 372.789062 106.65625 C 520.199219 106.65625 640.058594 226.519531 640.058594 373.9375 C 640.058594 521.355469 520.199219 641.21875 372.789062 641.21875 Z M 372.789062 126.890625 C 236.550781 126.890625 125.753906 237.695312 125.753906 373.9375 C 125.753906 510.179688 236.550781 620.984375 372.789062 620.984375 C 509.023438 620.984375 619.824219 510.179688 619.824219 373.9375 C 619.824219 237.695312 509.023438 126.890625 372.789062 126.890625 Z M 372.789062 126.890625 "
      fill-opacity="1"
      fill-rule="nonzero" />
    <path
      fill="#ffd146"
      d="M 517.308594 373.9375 C 517.308594 376.300781 517.25 378.664062 517.136719 381.027344 C 517.019531 383.390625 516.84375 385.75 516.613281 388.101562 C 516.382812 390.457031 516.09375 392.804688 515.746094 395.144531 C 515.398438 397.484375 514.992188 399.8125 514.53125 402.132812 C 514.070312 404.453125 513.554688 406.757812 512.976562 409.054688 C 512.402344 411.347656 511.773438 413.628906 511.085938 415.890625 C 510.398438 418.152344 509.65625 420.398438 508.859375 422.625 C 508.0625 424.851562 507.214844 427.058594 506.308594 429.246094 C 505.402344 431.429688 504.445312 433.589844 503.433594 435.730469 C 502.421875 437.867188 501.359375 439.980469 500.246094 442.066406 C 499.128906 444.152344 497.964844 446.210938 496.75 448.238281 C 495.53125 450.265625 494.265625 452.265625 492.953125 454.230469 C 491.640625 456.199219 490.277344 458.132812 488.867188 460.03125 C 487.460938 461.929688 486.003906 463.796875 484.503906 465.625 C 483.003906 467.453125 481.460938 469.242188 479.871094 470.996094 C 478.28125 472.75 476.652344 474.460938 474.980469 476.132812 C 473.308594 477.804688 471.59375 479.4375 469.84375 481.023438 C 468.089844 482.613281 466.300781 484.15625 464.472656 485.65625 C 462.644531 487.160156 460.777344 488.613281 458.878906 490.023438 C 456.980469 491.429688 455.046875 492.792969 453.078125 494.105469 C 451.113281 495.421875 449.117188 496.6875 447.085938 497.902344 C 445.058594 499.117188 443 500.285156 440.914062 501.398438 C 438.828125 502.511719 436.71875 503.578125 434.578125 504.589844 C 432.441406 505.597656 430.277344 506.558594 428.09375 507.460938 C 425.910156 508.367188 423.703125 509.21875 421.476562 510.015625 C 419.25 510.8125 417.003906 511.554688 414.742188 512.242188 C 412.476562 512.925781 410.199219 513.558594 407.902344 514.132812 C 405.609375 514.707031 403.300781 515.226562 400.984375 515.6875 C 398.664062 516.148438 396.332031 516.554688 393.992188 516.898438 C 391.652344 517.246094 389.308594 517.535156 386.953125 517.769531 C 384.601562 518 382.242188 518.175781 379.878906 518.289062 C 377.515625 518.40625 375.152344 518.464844 372.789062 518.464844 C 370.421875 518.464844 368.058594 518.40625 365.695312 518.289062 C 363.335938 518.175781 360.976562 518 358.621094 517.769531 C 356.269531 517.535156 353.921875 517.246094 351.582031 516.898438 C 349.242188 516.554688 346.914062 516.148438 344.59375 515.6875 C 342.273438 515.226562 339.964844 514.707031 337.671875 514.132812 C 335.378906 513.558594 333.097656 512.925781 330.835938 512.242188 C 328.570312 511.554688 326.328125 510.8125 324.101562 510.015625 C 321.871094 509.21875 319.667969 508.367188 317.480469 507.460938 C 315.296875 506.558594 313.136719 505.597656 310.996094 504.589844 C 308.859375 503.578125 306.746094 502.515625 304.660156 501.398438 C 302.574219 500.285156 300.515625 499.117188 298.488281 497.902344 C 296.460938 496.6875 294.460938 495.421875 292.496094 494.105469 C 290.527344 492.792969 288.597656 491.429688 286.695312 490.023438 C 284.796875 488.613281 282.933594 487.160156 281.105469 485.65625 C 279.277344 484.15625 277.484375 482.613281 275.734375 481.023438 C 273.980469 479.4375 272.269531 477.804688 270.59375 476.132812 C 268.921875 474.460938 267.292969 472.75 265.703125 470.996094 C 264.117188 469.242188 262.570312 467.453125 261.070312 465.625 C 259.570312 463.796875 258.117188 461.929688 256.707031 460.03125 C 255.296875 458.132812 253.9375 456.199219 252.621094 454.230469 C 251.308594 452.265625 250.042969 450.265625 248.828125 448.238281 C 247.613281 446.210938 246.445312 444.152344 245.332031 442.066406 C 244.214844 439.980469 243.152344 437.867188 242.140625 435.730469 C 241.128906 433.59375 240.171875 431.429688 239.265625 429.246094 C 238.363281 427.058594 237.511719 424.855469 236.714844 422.625 C 235.917969 420.398438 235.175781 418.152344 234.488281 415.890625 C 233.800781 413.628906 233.171875 411.347656 232.597656 409.054688 C 232.023438 406.757812 231.503906 404.453125 231.042969 402.132812 C 230.582031 399.8125 230.175781 397.484375 229.832031 395.144531 C 229.484375 392.804688 229.195312 390.457031 228.960938 388.101562 C 228.730469 385.75 228.554688 383.390625 228.441406 381.027344 C 228.324219 378.664062 228.265625 376.300781 228.265625 373.9375 C 228.265625 371.570312 228.324219 369.207031 228.441406 366.84375 C 228.554688 364.480469 228.730469 362.125 228.960938 359.769531 C 229.195312 357.417969 229.484375 355.070312 229.832031 352.730469 C 230.175781 350.390625 230.582031 348.058594 231.042969 345.742188 C 231.503906 343.421875 232.023438 341.113281 232.597656 338.820312 C 233.171875 336.523438 233.800781 334.246094 234.488281 331.980469 C 235.175781 329.71875 235.917969 327.472656 236.714844 325.246094 C 237.511719 323.019531 238.363281 320.8125 239.265625 318.628906 C 240.171875 316.441406 241.128906 314.28125 242.140625 312.144531 C 243.152344 310.003906 244.214844 307.890625 245.332031 305.804688 C 246.445312 303.71875 247.613281 301.664062 248.828125 299.632812 C 250.042969 297.605469 251.308594 295.609375 252.621094 293.640625 C 253.9375 291.675781 255.296875 289.742188 256.707031 287.839844 C 258.117188 285.941406 259.570312 284.078125 261.070312 282.25 C 262.570312 280.421875 264.117188 278.628906 265.703125 276.878906 C 267.292969 275.125 268.921875 273.414062 270.59375 271.738281 C 272.269531 270.066406 273.980469 268.4375 275.734375 266.847656 C 277.484375 265.257812 279.277344 263.714844 281.105469 262.214844 C 282.933594 260.714844 284.796875 259.257812 286.695312 257.851562 C 288.597656 256.441406 290.527344 255.078125 292.496094 253.765625 C 294.460938 252.453125 296.460938 251.1875 298.488281 249.96875 C 300.515625 248.753906 302.574219 247.589844 304.660156 246.472656 C 306.746094 245.359375 308.859375 244.296875 310.996094 243.285156 C 313.136719 242.273438 315.296875 241.316406 317.480469 240.410156 C 319.667969 239.503906 321.871094 238.652344 324.101562 237.855469 C 326.328125 237.058594 328.570312 236.316406 330.835938 235.632812 C 333.097656 234.945312 335.378906 234.3125 337.671875 233.738281 C 339.964844 233.164062 342.273438 232.648438 344.59375 232.183594 C 346.914062 231.722656 349.242188 231.320312 351.582031 230.972656 C 353.921875 230.625 356.269531 230.335938 358.621094 230.105469 C 360.976562 229.871094 363.335938 229.699219 365.695312 229.582031 C 368.058594 229.464844 370.421875 229.410156 372.789062 229.410156 C 375.152344 229.410156 377.515625 229.464844 379.878906 229.582031 C 382.242188 229.699219 384.601562 229.871094 386.953125 230.105469 C 389.308594 230.335938 391.652344 230.625 393.992188 230.972656 C 396.332031 231.320312 398.664062 231.722656 400.984375 232.183594 C 403.300781 232.648438 405.609375 233.164062 407.902344 233.738281 C 410.199219 234.3125 412.476562 234.945312 414.742188 235.632812 C 417.003906 236.316406 419.25 237.058594 421.476562 237.855469 C 423.703125 238.652344 425.910156 239.503906 428.09375 240.410156 C 430.277344 241.316406 432.441406 242.273438 434.578125 243.285156 C 436.71875 244.296875 438.828125 245.359375 440.914062 246.472656 C 443 247.589844 445.058594 248.753906 447.085938 249.96875 C 449.117188 251.1875 451.113281 252.453125 453.078125 253.765625 C 455.046875 255.078125 456.980469 256.441406 458.878906 257.851562 C 460.777344 259.257812 462.644531 260.714844 464.472656 262.214844 C 466.300781 263.714844 468.089844 265.257812 469.84375 266.847656 C 471.59375 268.4375 473.308594 270.066406 474.980469 271.738281 C 476.652344 273.414062 478.28125 275.125 479.871094 276.878906 C 481.460938 278.628906 483.003906 280.421875 484.503906 282.25 C 486.003906 284.078125 487.460938 285.941406 488.867188 287.839844 C 490.277344 289.742188 491.640625 291.675781 492.953125 293.640625 C 494.265625 295.609375 495.53125 297.605469 496.75 299.632812 C 497.964844 301.664062 499.128906 303.71875 500.246094 305.804688 C 501.359375 307.890625 502.421875 310.003906 503.433594 312.144531 C 504.445312 314.28125 505.402344 316.441406 506.308594 318.628906 C 507.214844 320.8125 508.066406 323.019531 508.863281 325.246094 C 509.65625 327.472656 510.398438 329.71875 511.085938 331.980469 C 511.773438 334.246094 512.402344 336.523438 512.976562 338.820312 C 513.554688 341.113281 514.070312 343.421875 514.53125 345.742188 C 514.992188 348.058594 515.398438 350.390625 515.746094 352.730469 C 516.09375 355.070312 516.382812 357.417969 516.613281 359.769531 C 516.84375 362.125 517.019531 364.480469 517.136719 366.84375 C 517.25 369.207031 517.308594 371.570312 517.308594 373.9375 Z M 517.308594 373.9375 "
      fill-opacity="1"
      fill-rule="nonzero" />
    <path
      fill="#fee69b"
      d="M 261.988281 402.457031 C 261.988281 322.675781 326.734375 257.929688 406.507812 257.929688 C 434.066406 257.929688 459.886719 265.636719 481.855469 279.125 C 455.453125 248.679688 416.335938 229.410156 372.789062 229.410156 C 293.011719 229.410156 228.265625 294.15625 228.265625 373.9375 C 228.265625 426.160156 256.015625 471.832031 297.445312 497.265625 C 275.476562 471.832031 261.988281 438.683594 261.988281 402.457031 Z M 261.988281 402.457031 "
      fill-opacity="1"
      fill-rule="nonzero" />
    <path
      fill="#f48240"
      d="M 372.789062 528.484375 C 287.617188 528.484375 218.246094 459.113281 218.246094 373.9375 C 218.246094 288.761719 287.617188 219.386719 372.789062 219.386719 C 457.960938 219.386719 527.328125 288.761719 527.328125 373.9375 C 527.328125 459.113281 457.960938 528.484375 372.789062 528.484375 Z M 372.789062 239.621094 C 298.792969 239.621094 238.480469 299.9375 238.480469 373.9375 C 238.480469 447.933594 298.792969 508.25 372.789062 508.25 C 446.78125 508.25 507.097656 447.933594 507.097656 373.9375 C 507.097656 299.9375 446.976562 239.621094 372.789062 239.621094 Z M 372.789062 239.621094 "
      fill-opacity="1"
      fill-rule="nonzero" />
  </symbol>

  <symbol id="icon-volcano-badge" viewBox="0 0 750 734.999996">
    <path
      fill="#ee2341"
      d="M 592.542969 263.378906 C 595.792969 223.949219 581.710938 122.550781 535.566406 111.285156 C 535.566406 169.132812 543.148438 226.113281 469.707031 228.496094 C 413.8125 230.449219 402.546875 178.015625 376.984375 139.667969 C 351.421875 178.015625 340.15625 230.449219 284.261719 228.496094 C 211.035156 226.113281 218.402344 169.132812 218.402344 111.285156 C 172.257812 122.550781 158.175781 223.949219 161.425781 263.378906 C 164.457031 301.078125 199.121094 344.191406 231.183594 364.992188 C 183.304688 416.988281 182.65625 510.371094 220.136719 567.785156 C 246.347656 608.082031 319.792969 644.480469 376.984375 642.746094 C 434.179688 644.480469 507.621094 608.082031 533.835938 567.785156 C 571.3125 510.371094 570.445312 416.988281 522.785156 364.992188 C 554.632812 344.191406 589.511719 301.078125 592.542969 263.378906 Z M 592.542969 263.378906 "
      fill-opacity="1"
      fill-rule="nonzero" />
    <path
      fill="#bd2035"
      d="M 380.667969 654.230469 C 379.367188 654.230469 378.066406 654.230469 376.984375 654.230469 C 317.191406 655.746094 239.632812 618.480469 210.601562 574.066406 C 170.957031 513.402344 173.558594 421.972656 214.71875 367.160156 C 183.957031 343.328125 153.191406 302.378906 150.160156 264.460938 C 148.644531 244.53125 151.027344 207.699219 160.558594 173.898438 C 172.472656 131.652344 191.539062 106.300781 215.800781 100.453125 L 229.882812 96.984375 L 229.882812 111.503906 C 229.882812 116.484375 229.882812 121.46875 229.667969 126.453125 C 229.019531 184.949219 231.183594 215.5 284.476562 217.449219 C 318.707031 218.53125 332.140625 197.300781 350.769531 162.199219 C 355.96875 152.667969 361.167969 142.917969 367.234375 133.601562 L 376.769531 119.300781 L 386.300781 133.601562 C 392.367188 142.699219 397.78125 152.667969 402.765625 162.199219 C 421.613281 197.082031 434.828125 218.53125 469.058594 217.449219 C 522.570312 215.714844 524.519531 184.949219 523.867188 126.453125 C 523.867188 121.46875 523.652344 116.484375 523.652344 111.503906 L 523.652344 96.984375 L 537.734375 100.453125 C 561.996094 106.300781 581.277344 131.867188 592.976562 173.898438 C 602.511719 207.699219 605.109375 244.53125 603.375 264.460938 C 600.34375 302.378906 569.582031 343.328125 538.816406 367.160156 C 579.761719 421.972656 582.578125 513.402344 542.933594 574.066406 C 514.984375 617.398438 440.027344 654.230469 380.667969 654.230469 Z M 376.984375 631.265625 L 377.417969 631.265625 C 429.628906 632.78125 499.605469 599.417969 524.519531 561.5 C 561.347656 505.171875 556.796875 418.507812 514.554688 372.574219 L 505.453125 362.609375 L 516.71875 355.242188 C 546.398438 335.960938 578.679688 296.09375 581.277344 262.296875 C 582.796875 244.3125 580.414062 210.730469 571.746094 179.75 C 565.464844 157 557.015625 140.316406 547.265625 130.785156 C 547.699219 181.699219 546.183594 237.378906 470.359375 239.980469 C 420.097656 241.714844 400.597656 205.097656 383.265625 172.816406 C 381.316406 169.132812 379.367188 165.449219 377.417969 161.984375 C 375.46875 165.667969 373.519531 169.351562 371.570312 172.816406 C 354.671875 204.449219 335.605469 239.980469 287.726562 239.980469 C 286.644531 239.980469 285.5625 239.980469 284.476562 239.980469 C 208.652344 237.378906 207.136719 181.699219 207.570312 130.785156 C 197.820312 140.316406 189.371094 157 183.089844 179.75 C 174.421875 210.730469 172.039062 244.3125 173.558594 262.296875 C 176.375 295.878906 208.4375 335.960938 238.117188 355.242188 L 249.382812 362.609375 L 240.28125 372.574219 C 198.039062 418.507812 193.488281 505.171875 230.316406 561.5 C 255.230469 599.632812 325.207031 632.78125 377.417969 631.265625 Z M 376.984375 631.265625 "
      fill-opacity="1"
      fill-rule="nonzero" />
    <path
      fill="#a41d2e"
      d="M 372.867188 611.765625 C 324.339844 611.765625 264.332031 579.050781 245.917969 550.667969 C 214.070312 501.921875 217.96875 424.789062 253.933594 385.574219 L 278.628906 358.707031 L 248.082031 338.777344 C 219.703125 320.359375 194.355469 284.613281 192.40625 260.78125 C 191.320312 248.648438 192.621094 230.664062 195.4375 212.898438 C 195.65625 211.816406 196.523438 211.164062 197.386719 210.949219 C 198.472656 210.730469 199.339844 211.382812 199.769531 212.246094 C 214.070312 242.582031 241.367188 257.960938 283.179688 259.480469 C 333.65625 261.210938 358.789062 231.53125 374.820312 205.53125 C 375.683594 204.230469 378.066406 204.230469 378.933594 205.53125 C 395.183594 231.53125 420.3125 261.210938 470.574219 259.480469 C 512.386719 257.960938 539.683594 242.582031 553.980469 212.246094 C 554.414062 211.382812 555.5 210.730469 556.363281 210.949219 C 557.449219 211.164062 558.316406 211.816406 558.316406 212.898438 C 561.132812 230.664062 562.214844 248.648438 561.347656 260.78125 C 559.398438 284.828125 533.835938 320.578125 505.671875 338.777344 L 475.125 358.707031 L 499.820312 385.574219 C 535.785156 424.789062 539.683594 501.921875 507.835938 550.667969 C 489.421875 578.832031 429.414062 611.765625 380.667969 611.765625 C 379.585938 611.765625 378.71875 611.765625 377.636719 611.765625 L 375.683594 611.765625 C 375.035156 611.765625 373.953125 611.765625 372.867188 611.765625 Z M 198.90625 220.914062 C 196.953125 235.863281 196.304688 250.378906 196.953125 260.5625 C 198.6875 283.3125 223.386719 317.328125 250.464844 335.09375 L 283.394531 356.542969 C 284.046875 356.976562 284.476562 357.625 284.476562 358.277344 C 284.476562 358.925781 284.261719 359.574219 283.828125 360.226562 L 257.179688 389.257812 C 222.519531 426.957031 219.050781 501.488281 249.597656 548.5 C 267.796875 576.234375 328.242188 608.734375 375.46875 607.433594 L 377.636719 607.433594 C 425.296875 608.734375 485.523438 576.234375 503.503906 548.5 C 534.265625 501.488281 530.800781 427.171875 495.921875 389.257812 L 469.925781 360.007812 C 469.492188 359.574219 469.273438 358.710938 469.273438 358.058594 C 469.273438 357.410156 469.707031 356.757812 470.359375 356.324219 L 503.289062 334.875 C 530.585938 317.109375 555.066406 283.09375 556.796875 260.347656 C 557.664062 250.378906 556.796875 235.648438 554.847656 220.699219 C 539.035156 248.214844 510.652344 262.730469 470.574219 264.03125 C 419.445312 265.761719 392.582031 235.648438 376.769531 210.949219 C 359.871094 237.164062 333.871094 265.761719 282.960938 264.03125 C 243.097656 262.945312 214.71875 248.214844 198.90625 220.914062 Z M 198.90625 220.914062 "
      fill-opacity="1"
      fill-rule="nonzero" />
    <path
      fill="#f38398"
      d="M 439.59375 469.203125 L 392.582031 546.117188 C 385.433594 557.816406 368.320312 557.816406 361.167969 546.117188 L 314.160156 469.203125 C 310.476562 463.355469 310.476562 455.988281 314.160156 449.921875 L 361.167969 373.007812 C 368.320312 361.308594 385.433594 361.308594 392.582031 373.007812 L 439.59375 449.921875 C 443.277344 455.773438 443.277344 463.355469 439.59375 469.203125 Z M 439.59375 469.203125 "
      fill-opacity="1"
      fill-rule="nonzero" />
  </symbol>

  <symbol id="icon-earth-badge" viewBox="0 0 750 734.999996">
    <path
      fill="#1db24b"
      d="M 344.5 343.644531 L 295.226562 294.375 L 295.226562 224.605469 L 344.5 175.335938 L 414.105469 175.335938 L 463.378906 224.605469 L 463.378906 294.375 L 414.105469 343.644531 Z M 344.5 343.644531 "
      fill-opacity="1"
      fill-rule="nonzero" />
    <path
      fill="#167139"
      d="M 414.105469 352.601562 L 344.5 352.601562 C 342.089844 352.601562 339.851562 351.570312 338.128906 350.019531 L 288.851562 300.75 C 287.128906 299.027344 286.269531 296.789062 286.269531 294.375 L 286.269531 224.605469 C 286.269531 222.195312 287.304688 219.957031 288.851562 218.234375 L 338.128906 168.964844 C 339.851562 167.242188 342.089844 166.378906 344.5 166.378906 L 414.105469 166.378906 C 416.515625 166.378906 418.757812 167.414062 420.480469 168.964844 L 469.753906 218.234375 C 471.476562 219.957031 472.335938 222.195312 472.335938 224.605469 L 472.335938 294.203125 C 472.335938 296.617188 471.304688 298.855469 469.753906 300.578125 L 420.480469 349.847656 C 418.757812 351.742188 416.515625 352.601562 414.105469 352.601562 Z M 348.121094 334.515625 L 410.316406 334.515625 L 454.246094 290.585938 L 454.246094 228.398438 L 410.316406 184.46875 L 348.121094 184.46875 L 304.1875 228.398438 L 304.1875 290.585938 Z M 348.121094 334.515625 "
      fill-opacity="1"
      fill-rule="nonzero" />
    <path
      fill="#aad15f"
      d="M 452.695312 345.023438 C 452.695312 297.820312 419.789062 259.578125 379.304688 259.578125 C 338.816406 259.578125 305.910156 297.820312 305.910156 345.023438 C 305.910156 385.507812 330.03125 419.273438 362.417969 428.230469 L 362.417969 627.71875 C 362.417969 637.023438 370 644.601562 379.304688 644.601562 C 388.605469 644.601562 396.1875 637.023438 396.1875 627.71875 L 396.1875 428.058594 C 428.578125 419.273438 452.695312 385.335938 452.695312 345.023438 Z M 452.695312 345.023438 "
      fill-opacity="1"
      fill-rule="nonzero" />
    <path
      fill="#789442"
      d="M 379.304688 653.558594 C 365.003906 653.558594 353.289062 641.84375 353.289062 627.546875 L 353.289062 434.605469 C 319.691406 422.027344 296.777344 386.023438 296.777344 344.851562 C 296.777344 292.652344 333.820312 250.273438 379.304688 250.273438 C 424.785156 250.273438 461.828125 292.652344 461.828125 344.851562 C 461.828125 386.023438 438.914062 421.855469 405.320312 434.605469 L 405.320312 627.546875 C 405.144531 642.015625 393.601562 653.558594 379.304688 653.558594 Z M 379.304688 268.535156 C 343.8125 268.535156 314.867188 302.816406 314.867188 345.023438 C 314.867188 380.855469 335.371094 411.347656 364.660156 419.445312 L 371.378906 421.339844 L 371.378906 627.71875 C 371.378906 632.027344 374.824219 635.644531 379.304688 635.644531 C 383.609375 635.644531 387.230469 632.199219 387.230469 627.71875 L 387.230469 421.167969 L 393.949219 419.273438 C 423.234375 411.175781 443.738281 380.511719 443.738281 344.851562 C 443.738281 302.816406 414.792969 268.535156 379.304688 268.535156 Z M 379.304688 268.535156 "
      fill-opacity="1"
      fill-rule="nonzero" />
    <path
      fill="#1db24b"
      d="M 262.667969 262.160156 L 240.613281 223.746094 L 262.667969 185.5 L 306.945312 185.5 L 329.167969 223.746094 L 306.945312 262.160156 Z M 262.667969 262.160156 "
      fill-opacity="1"
      fill-rule="nonzero" />
    <path
      fill="#167139"
      d="M 306.945312 271.121094 L 262.667969 271.121094 C 259.394531 271.121094 256.464844 269.398438 254.914062 266.640625 L 232.859375 228.222656 C 231.308594 225.46875 231.308594 222.023438 232.859375 219.265625 L 254.914062 180.851562 C 256.464844 178.09375 259.566406 176.371094 262.667969 176.371094 L 306.945312 176.371094 C 310.21875 176.371094 313.144531 178.09375 314.695312 180.851562 L 336.75 219.265625 C 338.300781 222.023438 338.300781 225.46875 336.75 228.222656 L 314.695312 266.640625 C 313.144531 269.398438 310.21875 271.121094 306.945312 271.121094 Z M 267.835938 253.03125 L 301.601562 253.03125 L 318.488281 223.746094 L 301.601562 194.460938 L 267.835938 194.460938 L 250.949219 223.746094 Z M 267.835938 253.03125 "
      fill-opacity="1"
      fill-rule="nonzero" />
    <path
      fill="#1db24b"
      d="M 336.75 182.226562 L 314.523438 143.984375 L 336.75 105.566406 L 381.027344 105.566406 L 403.078125 143.984375 L 381.027344 182.226562 Z M 336.75 182.226562 "
      fill-opacity="1"
      fill-rule="nonzero" />
    <path
      fill="#167139"
      d="M 381.027344 191.359375 L 336.75 191.359375 C 333.476562 191.359375 330.546875 189.636719 328.996094 186.878906 L 306.945312 148.464844 C 305.394531 145.707031 305.394531 142.261719 306.945312 139.503906 L 328.996094 101.089844 C 330.546875 98.332031 333.648438 96.609375 336.75 96.609375 L 381.027344 96.609375 C 384.300781 96.609375 387.230469 98.332031 388.777344 101.089844 L 410.832031 139.503906 C 412.382812 142.261719 412.382812 145.707031 410.832031 148.464844 L 388.777344 186.707031 C 387.230469 189.636719 384.300781 191.359375 381.027344 191.359375 Z M 341.917969 173.269531 L 375.683594 173.269531 L 392.570312 143.984375 L 375.683594 114.699219 L 341.917969 114.699219 L 325.035156 143.984375 Z M 341.917969 173.269531 "
      fill-opacity="1"
      fill-rule="nonzero" />
    <path
      fill="#1db24b"
      d="M 427.371094 223.746094 L 410.144531 193.769531 L 427.371094 163.796875 L 462.171875 163.796875 L 479.402344 193.769531 L 462.171875 223.746094 Z M 427.371094 223.746094 "
      fill-opacity="1"
      fill-rule="nonzero" />
    <path
      fill="#167139"
      d="M 462.171875 232.875 L 427.542969 232.875 C 424.269531 232.875 421.339844 231.152344 419.789062 228.398438 L 402.390625 198.421875 C 400.839844 195.664062 400.839844 192.21875 402.390625 189.464844 L 419.789062 159.488281 C 421.339844 156.730469 424.441406 155.007812 427.542969 155.007812 L 462.171875 155.007812 C 465.445312 155.007812 468.375 156.730469 469.925781 159.488281 L 487.328125 189.464844 C 488.878906 192.21875 488.878906 195.664062 487.328125 198.421875 L 469.925781 228.398438 C 468.375 231.152344 465.273438 232.875 462.171875 232.875 Z M 432.539062 214.789062 L 456.832031 214.789062 L 468.890625 193.769531 L 456.832031 172.753906 L 432.539062 172.753906 L 420.480469 193.769531 Z M 432.539062 214.789062 "
      fill-opacity="1"
      fill-rule="nonzero" />
    <path
      fill="#1db24b"
      d="M 463.035156 286.625 L 452.695312 268.707031 L 463.035156 250.621094 L 483.878906 250.621094 L 494.21875 268.707031 L 483.878906 286.625 Z M 463.035156 286.625 "
      fill-opacity="1"
      fill-rule="nonzero" />
    <path
      fill="#167139"
      d="M 483.878906 295.753906 L 463.207031 295.753906 C 459.933594 295.753906 457.003906 294.03125 455.453125 291.273438 L 445.117188 273.359375 C 443.566406 270.601562 443.566406 267.15625 445.117188 264.402344 L 455.453125 246.484375 C 457.003906 243.726562 460.105469 242.003906 463.207031 242.003906 L 483.878906 242.003906 C 487.152344 242.003906 490.082031 243.726562 491.632812 246.484375 L 501.972656 264.402344 C 503.519531 267.15625 503.519531 270.601562 501.972656 273.359375 L 491.632812 291.273438 C 490.082031 294.03125 487.152344 295.753906 483.878906 295.753906 Z M 468.375 277.664062 L 478.710938 277.664062 L 483.878906 268.707031 L 478.710938 259.75 L 468.375 259.75 L 463.207031 268.707031 Z M 468.375 277.664062 "
      fill-opacity="1"
      fill-rule="nonzero" />
    <path
      fill="#aad15f"
      d="M 264.734375 326.417969 C 255.257812 353.980469 261.460938 385.679688 283.339844 407.558594 C 305.222656 429.4375 337.09375 435.636719 364.488281 426.164062 C 373.960938 398.597656 367.761719 366.902344 345.878906 345.023438 C 323.828125 323.144531 292.125 316.945312 264.734375 326.417969 Z M 264.734375 326.417969 "
      fill-opacity="1"
      fill-rule="nonzero" />
    <path
      fill="#789442"
      d="M 338.988281 439.601562 C 316.074219 439.601562 293.503906 430.640625 276.964844 414.105469 C 253.363281 390.503906 245.265625 355.015625 256.117188 323.488281 L 257.496094 319.355469 L 261.632812 317.976562 C 293.160156 307.125 328.652344 315.222656 352.253906 338.820312 C 375.859375 362.421875 383.957031 397.910156 373.101562 429.4375 L 371.722656 433.570312 L 367.589844 434.949219 C 358.113281 438.050781 348.636719 439.601562 338.988281 439.601562 Z M 271.96875 333.652344 C 265.25 357.769531 271.796875 383.265625 289.714844 401.183594 C 307.632812 419.101562 333.128906 425.644531 357.25 418.925781 C 363.96875 394.808594 357.421875 369.3125 339.503906 351.398438 C 321.585938 333.480469 296.089844 326.933594 271.96875 333.652344 Z M 271.96875 333.652344 "
      fill-opacity="1"
      fill-rule="nonzero" />
    <path
      fill="#aad15f"
      d="M 496.457031 326.417969 C 505.933594 353.980469 499.730469 385.679688 477.851562 407.558594 C 455.96875 429.4375 424.097656 435.636719 396.703125 426.164062 C 387.230469 398.597656 393.429688 366.902344 415.3125 345.023438 C 437.363281 323.144531 469.0625 316.945312 496.457031 326.417969 Z M 496.457031 326.417969 "
      fill-opacity="1"
      fill-rule="nonzero" />
    <path
      fill="#789442"
      d="M 422.203125 439.601562 C 412.554688 439.601562 403.078125 438.050781 393.777344 434.777344 L 389.640625 433.398438 L 388.261719 429.261719 C 377.40625 397.738281 385.503906 362.25 409.109375 338.648438 C 432.710938 315.046875 468.203125 306.953125 499.730469 317.804688 L 503.867188 319.183594 L 505.246094 323.316406 C 516.097656 354.84375 508 390.332031 484.398438 413.929688 C 467.6875 430.640625 445.117188 439.601562 422.203125 439.601562 Z M 403.941406 418.925781 C 428.058594 425.644531 453.558594 419.101562 471.476562 401.183594 C 489.394531 383.265625 495.941406 357.769531 489.222656 333.652344 C 465.101562 326.933594 439.601562 333.480469 421.6875 351.398438 C 403.769531 369.3125 397.222656 394.808594 403.941406 418.925781 Z M 403.941406 418.925781 "
      fill-opacity="1"
      fill-rule="nonzero" />
  </symbol>
</svg>
